<svg width="24" height="24" viewBox="0 0 24 24" fill="none" xmlns="http://www.w3.org/2000/svg">
<path d="M20.9999 21.0002H8.99995M15.8889 14.8902L8.46395 7.46319M2.89295 12.6072L12.0859 3.41419C12.461 3.03924 12.9696 2.82861 13.4999 2.82861C14.0303 2.82861 14.5389 3.03924 14.9139 3.41419L19.8639 8.36419C20.2389 8.73924 20.4495 9.24786 20.4495 9.77819C20.4495 10.3085 20.2389 10.8171 19.8639 11.1922L10.6209 20.4352C10.2591 20.7967 9.76846 20.9998 9.25695 20.9998C8.74543 20.9998 8.25483 20.7967 7.89295 20.4352L2.89295 15.4352C2.518 15.0601 2.30737 14.5515 2.30737 14.0212C2.30737 13.4909 2.518 12.9822 2.89295 12.6072Z" stroke="#4C60E4" stroke-width="1.5" stroke-linecap="round" stroke-linejoin="round"/>
</svg>
