<svg width="25" height="24" viewBox="0 0 25 24" fill="none" xmlns="http://www.w3.org/2000/svg">
<path d="M2.25 11V4.6C2.25 4.44087 2.31321 4.28826 2.42574 4.17574C2.53826 4.06321 2.69087 4 2.85 4H9.028C9.17101 3.99999 9.30932 4.05106 9.418 4.144L12.582 6.856C12.6907 6.94894 12.829 7.00001 12.972 7H21.65C21.7288 7 21.8068 7.01552 21.8796 7.04567C21.9524 7.07583 22.0185 7.12002 22.0743 7.17574C22.13 7.23145 22.1742 7.29759 22.2043 7.37039C22.2345 7.44319 22.25 7.52121 22.25 7.6V11M2.25 11V19.4C2.25 19.5591 2.31321 19.7117 2.42574 19.8243C2.53826 19.9368 2.69087 20 2.85 20H21.65C21.8091 20 21.9617 19.9368 22.0743 19.8243C22.1868 19.7117 22.25 19.5591 22.25 19.4V11M2.25 11H22.25" stroke="#495057" stroke-width="1.5" stroke-linecap="round" stroke-linejoin="round"/>
</svg>
