<svg width="24" height="24" viewBox="0 0 24 24" fill="none" xmlns="http://www.w3.org/2000/svg">
<path d="M6.906 4.0839C6.81491 4.02989 6.71114 4.00095 6.60524 4.00002C6.49934 3.9991 6.39508 4.02622 6.30306 4.07863C6.21104 4.13104 6.13452 4.20687 6.0813 4.29843C6.02807 4.38998 6.00002 4.49399 6 4.5999V18.4939C6.00002 18.5998 6.02807 18.7038 6.0813 18.7954C6.13452 18.8869 6.21104 18.9627 6.30306 19.0152C6.39508 19.0676 6.49934 19.0947 6.60524 19.0938C6.71114 19.0928 6.81491 19.0639 6.906 19.0099L18.629 12.0629C18.7185 12.0098 18.7927 11.9343 18.8442 11.8438C18.8957 11.7533 18.9228 11.651 18.9228 11.5469C18.9228 11.4428 18.8957 11.3405 18.8442 11.25C18.7927 11.1595 18.7185 11.084 18.629 11.0309L6.906 4.0839Z" stroke="#303D90" stroke-width="1.5" stroke-linecap="round" stroke-linejoin="round"/>
</svg>
