<svg width="25" height="24" viewBox="0 0 25 24" fill="none" xmlns="http://www.w3.org/2000/svg">
<path d="M21.918 8C21.1395 6.21623 19.8574 4.6984 18.2289 3.63262C16.6004 2.56684 14.6962 1.99945 12.75 2C7.56499 2 3.29999 5.947 2.79999 11" stroke="#4C2B82" stroke-width="1.5" stroke-linecap="round" stroke-linejoin="round"/>
<path d="M17.75 8H22.15C22.2288 8 22.3068 7.98448 22.3796 7.95433C22.4524 7.92417 22.5185 7.87998 22.5742 7.82426C22.63 7.76855 22.6742 7.70241 22.7043 7.62961C22.7345 7.55681 22.75 7.47879 22.75 7.4V3M3.63098 16C5.17498 19.532 8.69898 22 12.799 22C17.985 22 22.249 18.053 22.75 13" stroke="#4C2B82" stroke-width="1.5" stroke-linecap="round" stroke-linejoin="round"/>
<path d="M7.79999 16H3.39999C3.24086 16 3.08825 16.0632 2.97572 16.1757C2.8632 16.2883 2.79999 16.4409 2.79999 16.6V21" stroke="#4C2B82" stroke-width="1.5" stroke-linecap="round" stroke-linejoin="round"/>
</svg>
