<svg width="24" height="24" viewBox="0 0 24 24" fill="none" xmlns="http://www.w3.org/2000/svg">
<path d="M14.3631 5.65201L15.8431 4.17201C16.0288 3.98621 16.2493 3.83882 16.492 3.73826C16.7347 3.6377 16.9948 3.58594 17.2576 3.58594C17.5203 3.58594 17.7804 3.6377 18.0231 3.73826C18.2658 3.83882 18.4863 3.98621 18.6721 4.17201L20.0861 5.58601C20.461 5.96107 20.6716 6.46968 20.6716 7.00001C20.6716 7.53034 20.461 8.03895 20.0861 8.41401L18.6061 9.89401M14.3631 5.65201L4.74705 15.267C4.41504 15.599 4.21042 16.0373 4.16905 16.505L3.92705 19.245C3.91406 19.3907 3.93316 19.5374 3.98303 19.6749C4.0329 19.8123 4.11231 19.9372 4.21566 20.0407C4.31902 20.1441 4.44381 20.2236 4.58124 20.2736C4.71866 20.3236 4.86538 20.3429 5.01105 20.33L7.75105 20.088C8.21948 20.0471 8.65852 19.8425 8.99105 19.51L18.6061 9.89401M14.3631 5.65201L18.6061 9.89401" stroke="#A78BFA" stroke-width="1.5" stroke-linecap="round" stroke-linejoin="round"/>
</svg>
