<svg width="48" height="48" viewBox="0 0 48 48" fill="none" xmlns="http://www.w3.org/2000/svg">
<path d="M12 14V34" stroke="#212529" stroke-width="1.5" stroke-linecap="round" stroke-linejoin="round"/>
<path d="M34.0559 10.5339C34.2328 10.3941 34.4455 10.307 34.6697 10.2825C34.8938 10.258 35.1203 10.2972 35.3232 10.3955C35.5261 10.4938 35.6972 10.6473 35.8169 10.8384C35.9366 11.0295 36 11.2504 35.9999 11.4759V36.5239C35.9996 36.7492 35.9359 36.9698 35.8161 37.1606C35.6962 37.3514 35.5251 37.5046 35.3223 37.6027C35.1195 37.7008 34.8931 37.7398 34.6692 37.7152C34.4452 37.6907 34.2327 37.6036 34.0559 37.4639L18.1939 24.9419C18.0516 24.8295 17.9366 24.6864 17.8575 24.5233C17.7784 24.3601 17.7373 24.1812 17.7373 23.9999C17.7373 23.8186 17.7784 23.6396 17.8575 23.4765C17.9366 23.3133 18.0516 23.1702 18.1939 23.0579L34.0559 10.5339Z" fill="#212529" stroke="#212529" stroke-width="1.5" stroke-linecap="round" stroke-linejoin="round"/>
</svg>
