<svg width="24" height="25" viewBox="0 0 24 25" fill="none" xmlns="http://www.w3.org/2000/svg">
<path d="M21.0002 21.9108H9.00019M15.8892 15.8008L8.46419 8.37383M2.89319 13.5178L12.0862 4.32483C12.4612 3.94989 12.9699 3.73926 13.5002 3.73926C14.0305 3.73926 14.5391 3.94989 14.9142 4.32483L19.8642 9.27483C20.2391 9.64989 20.4498 10.1585 20.4498 10.6888C20.4498 11.2192 20.2391 11.7278 19.8642 12.1028L10.6212 21.3458C10.2593 21.7073 9.76871 21.9104 9.25719 21.9104C8.74567 21.9104 8.25508 21.7073 7.89319 21.3458L2.89319 16.3458C2.51825 15.9708 2.30762 15.4622 2.30762 14.9318C2.30762 14.4015 2.51825 13.8929 2.89319 13.5178Z" stroke="#821492" stroke-width="1.5" stroke-linecap="round" stroke-linejoin="round"/>
</svg>
