<svg width="25" height="24" viewBox="0 0 25 24" fill="none" xmlns="http://www.w3.org/2000/svg">
<path d="M12.25 15C13.0456 15 13.8087 14.6839 14.3713 14.1213C14.9339 13.5587 15.25 12.7956 15.25 12C15.25 11.2044 14.9339 10.4413 14.3713 9.87868C13.8087 9.31607 13.0456 9 12.25 9C11.4544 9 10.6913 9.31607 10.1287 9.87868C9.56607 10.4413 9.25 11.2044 9.25 12C9.25 12.7956 9.56607 13.5587 10.1287 14.1213C10.6913 14.6839 11.4544 15 12.25 15Z" stroke="#495057" stroke-width="1.5" stroke-linecap="round" stroke-linejoin="round"/>
<path d="M19.872 10.395L18.775 7.745L20.25 6L18.25 4L16.515 5.483L13.808 4.37L13.185 2H11.231L10.599 4.401L7.954 5.516L6.25 4L4.25 6L5.703 7.789L4.623 10.446L2.25 11V13L4.651 13.656L5.766 16.3L4.25 18L6.25 20L8.041 18.54L10.647 19.612L11.25 22H13.25L13.854 19.613L16.505 18.515C16.947 18.832 18.25 20 18.25 20L20.25 18L18.766 16.25L19.864 13.598L22.25 12.978V11L19.872 10.395Z" stroke="#495057" stroke-width="1.5" stroke-linecap="round" stroke-linejoin="round"/>
</svg>
