<svg width="98" height="66" viewBox="0 0 98 66" fill="none" xmlns="http://www.w3.org/2000/svg">
<path d="M19.1033 0.668479C44.5247 -2.16267 71.971 9.54673 90.0365 39.7089L90.6523 35.6376C91.0426 33.055 92.768 31.5152 94.5061 32.1982C96.2442 32.8812 97.3368 35.5284 96.9465 38.1111L94.9072 51.6066C94.5993 53.6428 93.4402 55.0968 92.041 55.2011L80.3926 56.0692C78.618 56.2015 77.0537 54.1455 76.8984 51.4775C76.7433 48.8093 78.0562 46.539 79.8309 46.4068L85.2934 45.9996C68.9523 18.7619 43.8025 7.64511 19.8217 10.3157C-6.2375 13.2179 -29.8251 32.2516 -38.6313 62.3884C-39.3362 64.7999 -41.2336 65.8239 -42.8696 64.6755C-44.5056 63.5269 -45.2602 60.6408 -44.5554 58.2289C-34.5195 23.8832 -8.34583 3.72556 19.1033 0.668479Z" fill="#EACEFF"/>
</svg>
