<svg width="25" height="24" viewBox="0 0 25 24" fill="none" xmlns="http://www.w3.org/2000/svg">
<path d="M21.918 8C21.1395 6.21623 19.8574 4.6984 18.2289 3.63262C16.6004 2.56684 14.6963 1.99945 12.75 2C7.56505 2 3.30005 5.947 2.80005 11" stroke="#495057" stroke-width="1.5" stroke-linecap="round" stroke-linejoin="round"/>
<path d="M17.7501 8H22.1501C22.2289 8 22.3069 7.98448 22.3797 7.95433C22.4525 7.92417 22.5187 7.87998 22.5744 7.82426C22.6301 7.76855 22.6743 7.70241 22.7044 7.62961C22.7346 7.55681 22.7501 7.47879 22.7501 7.4V3M3.6311 16C5.1751 19.532 8.6991 22 12.7991 22C17.9851 22 22.2491 18.053 22.7501 13" stroke="#495057" stroke-width="1.5" stroke-linecap="round" stroke-linejoin="round"/>
<path d="M7.80005 16H3.40005C3.24092 16 3.08831 16.0632 2.97578 16.1757C2.86326 16.2883 2.80005 16.4409 2.80005 16.6V21" stroke="#495057" stroke-width="1.5" stroke-linecap="round" stroke-linejoin="round"/>
</svg>
