<svg width="24" height="24" viewBox="0 0 24 24" fill="none" xmlns="http://www.w3.org/2000/svg">
<path d="M21.168 8C20.3895 6.21623 19.1074 4.6984 17.4789 3.63262C15.8504 2.56684 13.9462 1.99945 12 2C6.81499 2 2.54999 5.947 2.04999 11" stroke="#4C60E4" stroke-width="1.5" stroke-linecap="round" stroke-linejoin="round"/>
<path d="M17 8H21.4C21.4788 8 21.5568 7.98448 21.6296 7.95433C21.7024 7.92417 21.7685 7.87998 21.8242 7.82426C21.88 7.76855 21.9242 7.70241 21.9543 7.62961C21.9845 7.55681 22 7.47879 22 7.4V3M2.88098 16C4.42498 19.532 7.94898 22 12.049 22C17.235 22 21.499 18.053 22 13" stroke="#4C60E4" stroke-width="1.5" stroke-linecap="round" stroke-linejoin="round"/>
<path d="M7.04999 16H2.64999C2.49086 16 2.33825 16.0632 2.22572 16.1757C2.1132 16.2883 2.04999 16.4409 2.04999 16.6V21" stroke="#4C60E4" stroke-width="1.5" stroke-linecap="round" stroke-linejoin="round"/>
</svg>
