<svg width="163" height="161" viewBox="0 0 163 161" fill="none" xmlns="http://www.w3.org/2000/svg">
<path d="M3.00879 16.25V8.75C3.00879 8.21957 3.2195 7.71086 3.59458 7.33579C3.96965 6.96071 4.47836 6.75 5.00879 6.75H13.5088C14.0392 6.75 14.5479 6.96071 14.923 7.33579C15.2981 7.71086 15.5088 8.21957 15.5088 8.75V16.25C15.5088 16.7804 15.2981 17.2891 14.923 17.6642C14.5479 18.0393 14.0392 18.25 13.5088 18.25H5.00879C4.47836 18.25 3.96965 18.0393 3.59458 17.6642C3.2195 17.2891 3.00879 16.7804 3.00879 16.25ZM20.1768 7.491L16.1768 11.054C16.1241 11.1008 16.0819 11.1582 16.0529 11.2225C16.0239 11.2868 16.0089 11.3565 16.0088 11.427V13.205C16.0089 13.2755 16.0239 13.3452 16.0529 13.4095C16.0819 13.4738 16.1241 13.5312 16.1768 13.578L20.1768 17.141C20.2489 17.205 20.3379 17.2468 20.4332 17.2614C20.5284 17.276 20.6259 17.2627 20.7138 17.2232C20.8017 17.1837 20.8763 17.1196 20.9286 17.0386C20.981 16.9577 21.0088 16.8634 21.0088 16.767V7.865C21.0088 7.76862 20.981 7.67429 20.9286 7.59335C20.8763 7.51242 20.8017 7.44834 20.7138 7.40882C20.6259 7.36931 20.5284 7.35604 20.4332 7.37062C20.3379 7.3852 20.2489 7.427 20.1768 7.491Z" stroke="#939FEE" stroke-width="1.5" stroke-linecap="round" stroke-linejoin="round"/>
<path d="M38.3288 17.192C36.6541 17.192 35.3155 16.6533 34.3128 15.576C33.3208 14.4987 32.8248 13.096 32.8248 11.368C32.8248 9.66133 33.3261 8.27467 34.3288 7.208C35.3315 6.14133 36.6701 5.608 38.3448 5.608C39.7955 5.608 40.9848 6.00267 41.9128 6.792C42.8515 7.58133 43.4435 8.68533 43.6888 10.104H42.1368C41.9341 9.12267 41.4968 8.36 40.8248 7.816C40.1635 7.272 39.3368 7 38.3448 7C37.1288 7 36.1688 7.39467 35.4648 8.184C34.7608 8.96267 34.4088 10.024 34.4088 11.368C34.4088 12.744 34.7608 13.8267 35.4648 14.616C36.1688 15.4053 37.1235 15.8 38.3288 15.8C39.3421 15.8 40.1741 15.5333 40.8248 15C41.4861 14.4667 41.9235 13.6987 42.1368 12.696H43.6888C43.4435 14.1467 42.8568 15.2613 41.9288 16.04C41.0008 16.808 39.8008 17.192 38.3288 17.192ZM49.3248 17.192C48.0341 17.192 47.0101 16.776 46.2528 15.944C45.5061 15.1013 45.1328 14.0133 45.1328 12.68C45.1328 11.336 45.5275 10.2747 46.3168 9.496C47.1061 8.70667 48.1088 8.312 49.3248 8.312C50.6155 8.312 51.6341 8.72267 52.3808 9.544C53.1381 10.3653 53.5168 11.4107 53.5168 12.68C53.5168 14.0773 53.1275 15.1813 52.3488 15.992C51.5701 16.792 50.5621 17.192 49.3248 17.192ZM49.3248 15.896C50.1568 15.896 50.8128 15.592 51.2928 14.984C51.7835 14.376 52.0288 13.608 52.0288 12.68C52.0288 11.7627 51.7781 11.0213 51.2768 10.456C50.7861 9.89067 50.1355 9.608 49.3248 9.608C48.5141 9.608 47.8581 9.89067 47.3568 10.456C46.8661 11.0213 46.6208 11.7627 46.6208 12.68C46.6208 13.672 46.8768 14.456 47.3888 15.032C47.9008 15.608 48.5461 15.896 49.3248 15.896ZM59.3178 8.312C60.2671 8.312 61.0298 8.59467 61.6058 9.16C62.1818 9.71467 62.4698 10.4347 62.4698 11.32V17H60.9978V11.368C60.9978 10.824 60.8218 10.3973 60.4698 10.088C60.1178 9.77867 59.6645 9.624 59.1098 9.624C58.3738 9.624 57.7871 9.83733 57.3498 10.264C56.9125 10.68 56.6885 11.208 56.6778 11.848V17H55.1898V8.52H56.4218L56.5338 9.672C57.1311 8.76533 58.0591 8.312 59.3178 8.312ZM70.7762 8.52H72.2962L68.7602 17H67.1922L63.6562 8.52H65.2082L67.9922 15.192L70.7762 8.52ZM80.8675 12.456V13.096H74.3715C74.4249 13.9493 74.6969 14.632 75.1875 15.144C75.6782 15.6453 76.3129 15.896 77.0915 15.896C78.2542 15.896 79.0169 15.3787 79.3795 14.344H80.8355C80.6435 15.2293 80.2115 15.928 79.5395 16.44C78.8782 16.9413 78.0622 17.192 77.0915 17.192C75.8222 17.192 74.7982 16.7813 74.0195 15.96C73.2409 15.1387 72.8515 14.0827 72.8515 12.792C72.8515 11.3947 73.2409 10.3013 74.0195 9.512C74.8089 8.712 75.7795 8.312 76.9315 8.312C78.1155 8.312 79.0595 8.68533 79.7635 9.432C80.4782 10.168 80.8462 11.176 80.8675 12.456ZM78.5155 10.216C78.0995 9.81067 77.5715 9.608 76.9315 9.608C76.2915 9.608 75.7475 9.80533 75.2995 10.2C74.8622 10.5947 74.5742 11.144 74.4355 11.848H79.3155C79.2089 11.1653 78.9422 10.6213 78.5155 10.216ZM86.8372 8.456H87.1252V9.896H86.8372C85.9305 9.896 85.2372 10.1307 84.7572 10.6C84.2772 11.0587 84.0372 11.7253 84.0372 12.6V17H82.5492V8.52H83.7172L83.9092 10.168C84.4425 9.02667 85.4185 8.456 86.8372 8.456ZM92.9328 9.88H90.6768V14.472C90.6768 14.8453 90.7728 15.1333 90.9648 15.336C91.1568 15.5387 91.4235 15.64 91.7648 15.64H92.7888V17H91.7648C90.9541 17 90.3248 16.7813 89.8768 16.344C89.4288 15.9067 89.2048 15.2827 89.2048 14.472V9.88H87.6848V8.52H89.2048V6.52H90.6768V8.52H92.9328V9.88ZM104.386 8.52H105.906L102.37 17H100.802L97.2655 8.52H98.8175L101.602 15.192L104.386 8.52ZM108.068 7.192C107.759 7.192 107.503 7.09067 107.3 6.888C107.098 6.67467 106.996 6.41867 106.996 6.12C106.996 5.82133 107.098 5.57067 107.3 5.368C107.503 5.16533 107.759 5.064 108.068 5.064C108.367 5.064 108.618 5.16533 108.82 5.368C109.023 5.57067 109.124 5.82133 109.124 6.12C109.124 6.41867 109.023 6.67467 108.82 6.888C108.618 7.09067 108.367 7.192 108.068 7.192ZM107.332 17V8.52H108.804V17H107.332ZM117.227 5H118.715V17H117.563L117.339 15.768C116.678 16.7173 115.744 17.192 114.539 17.192C113.312 17.192 112.336 16.776 111.611 15.944C110.896 15.112 110.539 14.056 110.539 12.776C110.539 11.4 110.912 10.312 111.659 9.512C112.416 8.712 113.376 8.312 114.539 8.312C115.616 8.312 116.512 8.70133 117.227 9.48V5ZM114.667 15.896C115.392 15.896 115.995 15.6133 116.475 15.048C116.955 14.4827 117.216 13.752 117.259 12.856V12.44C117.216 11.5973 116.955 10.9147 116.475 10.392C115.995 9.86933 115.392 9.608 114.667 9.608C113.91 9.608 113.291 9.90667 112.811 10.504C112.331 11.0907 112.091 11.848 112.091 12.776C112.091 13.6933 112.331 14.4453 112.811 15.032C113.291 15.608 113.91 15.896 114.667 15.896ZM128.43 12.456V13.096H121.934C121.987 13.9493 122.259 14.632 122.75 15.144C123.241 15.6453 123.875 15.896 124.654 15.896C125.817 15.896 126.579 15.3787 126.942 14.344H128.398C128.206 15.2293 127.774 15.928 127.102 16.44C126.441 16.9413 125.625 17.192 124.654 17.192C123.385 17.192 122.361 16.7813 121.582 15.96C120.803 15.1387 120.414 14.0827 120.414 12.792C120.414 11.3947 120.803 10.3013 121.582 9.512C122.371 8.712 123.342 8.312 124.494 8.312C125.678 8.312 126.622 8.68533 127.326 9.432C128.041 10.168 128.409 11.176 128.43 12.456ZM126.078 10.216C125.662 9.81067 125.134 9.608 124.494 9.608C123.854 9.608 123.31 9.80533 122.862 10.2C122.425 10.5947 122.137 11.144 121.998 11.848H126.878C126.771 11.1653 126.505 10.6213 126.078 10.216ZM133.872 17.192C132.581 17.192 131.557 16.776 130.8 15.944C130.053 15.1013 129.68 14.0133 129.68 12.68C129.68 11.336 130.074 10.2747 130.864 9.496C131.653 8.70667 132.656 8.312 133.872 8.312C135.162 8.312 136.181 8.72267 136.928 9.544C137.685 10.3653 138.064 11.4107 138.064 12.68C138.064 14.0773 137.674 15.1813 136.896 15.992C136.117 16.792 135.109 17.192 133.872 17.192ZM133.872 15.896C134.704 15.896 135.36 15.592 135.84 14.984C136.33 14.376 136.576 13.608 136.576 12.68C136.576 11.7627 136.325 11.0213 135.824 10.456C135.333 9.89067 134.682 9.608 133.872 9.608C133.061 9.608 132.405 9.89067 131.904 10.456C131.413 11.0213 131.168 11.7627 131.168 12.68C131.168 13.672 131.424 14.456 131.936 15.032C132.448 15.608 133.093 15.896 133.872 15.896Z" fill="#495057"/>
<path d="M21.0088 37.6V54.4C21.0088 54.5591 20.9456 54.7117 20.8331 54.8243C20.7205 54.9368 20.5679 55 20.4088 55H3.60879C3.44966 55 3.29705 54.9368 3.18453 54.8243C3.072 54.7117 3.00879 54.5591 3.00879 54.4V37.6C3.00879 37.4409 3.072 37.2883 3.18453 37.1757C3.29705 37.0632 3.44966 37 3.60879 37H20.4088C20.5679 37 20.7205 37.0632 20.8331 37.1757C20.9456 37.2883 21.0088 37.4409 21.0088 37.6Z" stroke="#939FEE" stroke-width="1.5" stroke-linecap="round" stroke-linejoin="round"/>
<path d="M9.90679 42.5128C9.8156 42.4606 9.71231 42.4333 9.60725 42.4336C9.50219 42.4339 9.39904 42.4617 9.30812 42.5144C9.2172 42.567 9.1417 42.6426 9.08917 42.7336C9.03664 42.8246 9.00892 42.9278 9.00879 43.0328V48.9658C9.00875 49.071 9.03634 49.1743 9.0888 49.2654C9.14126 49.3565 9.21674 49.4323 9.30769 49.485C9.39864 49.5378 9.50185 49.5657 9.607 49.5661C9.71215 49.5664 9.81553 49.5391 9.90679 49.4868L15.0968 46.5208C15.1887 46.4684 15.265 46.3925 15.3181 46.301C15.3712 46.2095 15.3992 46.1056 15.3992 45.9998C15.3992 45.894 15.3712 45.7901 15.3181 45.6986C15.265 45.6071 15.1887 45.5313 15.0968 45.4788L9.90679 42.5128Z" stroke="#939FEE" stroke-width="1.5" stroke-linecap="round" stroke-linejoin="round"/>
<path d="M41.6408 51L40.3288 47.816H35.1768L33.8648 51H32.4088L37.0168 39.8H38.5208L43.1448 51H41.6408ZM35.7368 46.456H39.7688L37.7528 41.56L35.7368 46.456ZM50.228 42.52H51.716V51H50.564L50.404 49.72C49.8707 50.7013 48.98 51.192 47.732 51.192C46.6974 51.192 45.892 50.9147 45.316 50.36C44.74 49.8053 44.452 49.08 44.452 48.184V42.52H45.924V48.12C45.924 48.6747 46.1 49.1067 46.452 49.416C46.804 49.7253 47.2787 49.88 47.876 49.88C48.6227 49.88 49.1987 49.672 49.604 49.256C50.0094 48.84 50.2174 48.312 50.228 47.672V42.52ZM60.0864 39H61.5744V51H60.4224L60.1984 49.768C59.5371 50.7173 58.6037 51.192 57.3984 51.192C56.1717 51.192 55.1957 50.776 54.4704 49.944C53.7557 49.112 53.3984 48.056 53.3984 46.776C53.3984 45.4 53.7717 44.312 54.5184 43.512C55.2757 42.712 56.2357 42.312 57.3984 42.312C58.4757 42.312 59.3717 42.7013 60.0864 43.48V39ZM57.5264 49.896C58.2517 49.896 58.8544 49.6133 59.3344 49.048C59.8144 48.4827 60.0757 47.752 60.1184 46.856V46.44C60.0757 45.5973 59.8144 44.9147 59.3344 44.392C58.8544 43.8693 58.2517 43.608 57.5264 43.608C56.7691 43.608 56.1504 43.9067 55.6704 44.504C55.1904 45.0907 54.9504 45.848 54.9504 46.776C54.9504 47.6933 55.1904 48.4453 55.6704 49.032C56.1504 49.608 56.7691 49.896 57.5264 49.896ZM64.5214 41.192C64.2121 41.192 63.9561 41.0907 63.7534 40.888C63.5507 40.6747 63.4494 40.4187 63.4494 40.12C63.4494 39.8213 63.5507 39.5707 63.7534 39.368C63.9561 39.1653 64.2121 39.064 64.5214 39.064C64.8201 39.064 65.0707 39.1653 65.2734 39.368C65.4761 39.5707 65.5774 39.8213 65.5774 40.12C65.5774 40.4187 65.4761 40.6747 65.2734 40.888C65.0707 41.0907 64.8201 41.192 64.5214 41.192ZM63.7854 51V42.52H65.2574V51H63.7854ZM71.1842 51.192C69.8935 51.192 68.8695 50.776 68.1122 49.944C67.3655 49.1013 66.9922 48.0133 66.9922 46.68C66.9922 45.336 67.3868 44.2747 68.1762 43.496C68.9655 42.7067 69.9682 42.312 71.1842 42.312C72.4748 42.312 73.4935 42.7227 74.2402 43.544C74.9975 44.3653 75.3762 45.4107 75.3762 46.68C75.3762 48.0773 74.9868 49.1813 74.2082 49.992C73.4295 50.792 72.4215 51.192 71.1842 51.192ZM71.1842 49.896C72.0162 49.896 72.6722 49.592 73.1522 48.984C73.6428 48.376 73.8882 47.608 73.8882 46.68C73.8882 45.7627 73.6375 45.0213 73.1362 44.456C72.6455 43.8907 71.9948 43.608 71.1842 43.608C70.3735 43.608 69.7175 43.8907 69.2162 44.456C68.7255 45.0213 68.4802 45.7627 68.4802 46.68C68.4802 47.672 68.7362 48.456 69.2482 49.032C69.7602 49.608 70.4055 49.896 71.1842 49.896ZM84.5145 51.192C83.1919 51.192 82.1465 50.7707 81.3785 49.928C80.6105 49.0853 80.2265 48.0133 80.2265 46.712C80.2265 45.3573 80.6212 44.2853 81.4105 43.496C82.2105 42.7067 83.2185 42.312 84.4345 42.312C85.5332 42.312 86.4399 42.6213 87.1545 43.24C87.8692 43.8587 88.2852 44.7067 88.4025 45.784H86.9465C86.8292 45.112 86.5465 44.584 86.0985 44.2C85.6612 43.8053 85.1065 43.608 84.4345 43.608C83.6239 43.608 82.9732 43.8907 82.4825 44.456C81.9919 45.0213 81.7465 45.7733 81.7465 46.712C81.7465 47.6933 82.0079 48.472 82.5305 49.048C83.0639 49.6133 83.7412 49.896 84.5625 49.896C85.2025 49.896 85.7305 49.704 86.1465 49.32C86.5732 48.936 86.8399 48.392 86.9465 47.688H88.4025C88.2745 48.7973 87.8692 49.6613 87.1865 50.28C86.5145 50.888 85.6239 51.192 84.5145 51.192ZM93.7623 51.192C92.4716 51.192 91.4476 50.776 90.6903 49.944C89.9436 49.1013 89.5703 48.0133 89.5703 46.68C89.5703 45.336 89.965 44.2747 90.7543 43.496C91.5436 42.7067 92.5463 42.312 93.7623 42.312C95.053 42.312 96.0716 42.7227 96.8183 43.544C97.5756 44.3653 97.9543 45.4107 97.9543 46.68C97.9543 48.0773 97.565 49.1813 96.7863 49.992C96.0076 50.792 94.9996 51.192 93.7623 51.192ZM93.7623 49.896C94.5943 49.896 95.2503 49.592 95.7303 48.984C96.221 48.376 96.4663 47.608 96.4663 46.68C96.4663 45.7627 96.2156 45.0213 95.7143 44.456C95.2236 43.8907 94.573 43.608 93.7623 43.608C92.9516 43.608 92.2956 43.8907 91.7943 44.456C91.3036 45.0213 91.0583 45.7627 91.0583 46.68C91.0583 47.672 91.3143 48.456 91.8263 49.032C92.3383 49.608 92.9836 49.896 93.7623 49.896ZM103.755 42.312C104.705 42.312 105.467 42.5947 106.043 43.16C106.619 43.7147 106.907 44.4347 106.907 45.32V51H105.435V45.368C105.435 44.824 105.259 44.3973 104.907 44.088C104.555 43.7787 104.102 43.624 103.547 43.624C102.811 43.624 102.225 43.8373 101.787 44.264C101.35 44.68 101.126 45.208 101.115 45.848V51H99.6273V42.52H100.859L100.971 43.672C101.569 42.7653 102.497 42.312 103.755 42.312ZM115.214 42.52H116.734L113.198 51H111.63L108.094 42.52H109.646L112.43 49.192L115.214 42.52ZM125.305 46.456V47.096H118.809C118.862 47.9493 119.134 48.632 119.625 49.144C120.116 49.6453 120.75 49.896 121.529 49.896C122.692 49.896 123.454 49.3787 123.817 48.344H125.273C125.081 49.2293 124.649 49.928 123.977 50.44C123.316 50.9413 122.5 51.192 121.529 51.192C120.26 51.192 119.236 50.7813 118.457 49.96C117.678 49.1387 117.289 48.0827 117.289 46.792C117.289 45.3947 117.678 44.3013 118.457 43.512C119.246 42.712 120.217 42.312 121.369 42.312C122.553 42.312 123.497 42.6853 124.201 43.432C124.916 44.168 125.284 45.176 125.305 46.456ZM122.953 44.216C122.537 43.8107 122.009 43.608 121.369 43.608C120.729 43.608 120.185 43.8053 119.737 44.2C119.3 44.5947 119.012 45.144 118.873 45.848H123.753C123.646 45.1653 123.38 44.6213 122.953 44.216ZM131.275 42.456H131.563V43.896H131.275C130.368 43.896 129.675 44.1307 129.195 44.6C128.715 45.0587 128.475 45.7253 128.475 46.6V51H126.987V42.52H128.155L128.347 44.168C128.88 43.0267 129.856 42.456 131.275 42.456ZM136.014 51.192C134.926 51.192 134.062 50.9573 133.422 50.488C132.782 50.008 132.436 49.3413 132.382 48.488H133.854C133.897 48.9467 134.105 49.304 134.478 49.56C134.862 49.8053 135.38 49.928 136.03 49.928C136.564 49.928 136.99 49.8213 137.31 49.608C137.63 49.384 137.79 49.0907 137.79 48.728C137.79 48.3653 137.646 48.088 137.358 47.896C137.081 47.6933 136.596 47.5227 135.902 47.384C135.582 47.32 135.342 47.272 135.182 47.24C135.022 47.1973 134.788 47.1333 134.478 47.048C134.18 46.952 133.945 46.8453 133.774 46.728C133.614 46.6107 133.438 46.4667 133.246 46.296C133.065 46.1253 132.932 45.9173 132.846 45.672C132.761 45.4267 132.718 45.1493 132.718 44.84C132.718 44.104 133.017 43.5013 133.614 43.032C134.212 42.552 134.969 42.312 135.886 42.312C136.804 42.312 137.556 42.5413 138.142 43C138.729 43.4587 139.081 44.0933 139.198 44.904H137.742C137.572 44.0187 136.948 43.576 135.87 43.576C135.369 43.576 134.958 43.6933 134.638 43.928C134.329 44.152 134.174 44.4453 134.174 44.808C134.174 45.224 134.324 45.5227 134.622 45.704C134.932 45.8747 135.438 46.0293 136.142 46.168C136.516 46.2427 136.814 46.312 137.038 46.376C137.262 46.4293 137.529 46.52 137.838 46.648C138.158 46.776 138.409 46.92 138.59 47.08C138.772 47.24 138.926 47.4587 139.054 47.736C139.193 48.0133 139.262 48.328 139.262 48.68C139.262 49.4267 138.958 50.0347 138.35 50.504C137.753 50.9627 136.974 51.192 136.014 51.192ZM141.74 41.192C141.431 41.192 141.175 41.0907 140.972 40.888C140.769 40.6747 140.668 40.4187 140.668 40.12C140.668 39.8213 140.769 39.5707 140.972 39.368C141.175 39.1653 141.431 39.064 141.74 39.064C142.039 39.064 142.289 39.1653 142.492 39.368C142.695 39.5707 142.796 39.8213 142.796 40.12C142.796 40.4187 142.695 40.6747 142.492 40.888C142.289 41.0907 142.039 41.192 141.74 41.192ZM141.004 51V42.52H142.476V51H141.004ZM148.403 51.192C147.112 51.192 146.088 50.776 145.331 49.944C144.584 49.1013 144.211 48.0133 144.211 46.68C144.211 45.336 144.606 44.2747 145.395 43.496C146.184 42.7067 147.187 42.312 148.403 42.312C149.694 42.312 150.712 42.7227 151.459 43.544C152.216 44.3653 152.595 45.4107 152.595 46.68C152.595 48.0773 152.206 49.1813 151.427 49.992C150.648 50.792 149.64 51.192 148.403 51.192ZM148.403 49.896C149.235 49.896 149.891 49.592 150.371 48.984C150.862 48.376 151.107 47.608 151.107 46.68C151.107 45.7627 150.856 45.0213 150.355 44.456C149.864 43.8907 149.214 43.608 148.403 43.608C147.592 43.608 146.936 43.8907 146.435 44.456C145.944 45.0213 145.699 45.7627 145.699 46.68C145.699 47.672 145.955 48.456 146.467 49.032C146.979 49.608 147.624 49.896 148.403 49.896ZM158.396 42.312C159.345 42.312 160.108 42.5947 160.684 43.16C161.26 43.7147 161.548 44.4347 161.548 45.32V51H160.076V45.368C160.076 44.824 159.9 44.3973 159.548 44.088C159.196 43.7787 158.743 43.624 158.188 43.624C157.452 43.624 156.865 43.8373 156.428 44.264C155.991 44.68 155.767 45.208 155.756 45.848V51H154.268V42.52H155.5L155.612 43.672C156.209 42.7653 157.137 42.312 158.396 42.312Z" fill="#495057"/>
<path d="M21.0088 72.1V88.9C21.0088 89.0591 20.9456 89.2117 20.8331 89.3243C20.7205 89.4368 20.5679 89.5 20.4088 89.5H3.60879C3.44966 89.5 3.29705 89.4368 3.18453 89.3243C3.072 89.2117 3.00879 89.0591 3.00879 88.9V72.1C3.00879 71.9409 3.072 71.7883 3.18453 71.6757C3.29705 71.5632 3.44966 71.5 3.60879 71.5H20.4088C20.5679 71.5 20.7205 71.5632 20.8331 71.6757C20.9456 71.7883 21.0088 71.9409 21.0088 72.1Z" stroke="#939FEE" stroke-width="1.5" stroke-linecap="round" stroke-linejoin="round"/>
<path d="M3.00879 84.5L10.0088 81.5L21.0088 86.5M16.0088 78.5C15.4784 78.5 14.9696 78.2893 14.5946 77.9142C14.2195 77.5391 14.0088 77.0304 14.0088 76.5C14.0088 75.9696 14.2195 75.4609 14.5946 75.0858C14.9696 74.7107 15.4784 74.5 16.0088 74.5C16.5392 74.5 17.0479 74.7107 17.423 75.0858C17.7981 75.4609 18.0088 75.9696 18.0088 76.5C18.0088 77.0304 17.7981 77.5391 17.423 77.9142C17.0479 78.2893 16.5392 78.5 16.0088 78.5Z" stroke="#939FEE" stroke-width="1.5" stroke-linecap="round" stroke-linejoin="round"/>
<path d="M38.3288 85.192C36.6541 85.192 35.3155 84.6533 34.3128 83.576C33.3208 82.4987 32.8248 81.096 32.8248 79.368C32.8248 77.6613 33.3261 76.2747 34.3288 75.208C35.3315 74.1413 36.6701 73.608 38.3448 73.608C39.7955 73.608 40.9848 74.0027 41.9128 74.792C42.8515 75.5813 43.4435 76.6853 43.6888 78.104H42.1368C41.9341 77.1227 41.4968 76.36 40.8248 75.816C40.1635 75.272 39.3368 75 38.3448 75C37.1288 75 36.1688 75.3947 35.4648 76.184C34.7608 76.9627 34.4088 78.024 34.4088 79.368C34.4088 80.744 34.7608 81.8267 35.4648 82.616C36.1688 83.4053 37.1235 83.8 38.3288 83.8C39.3421 83.8 40.1741 83.5333 40.8248 83C41.4861 82.4667 41.9235 81.6987 42.1368 80.696H43.6888C43.4435 82.1467 42.8568 83.2613 41.9288 84.04C41.0008 84.808 39.8008 85.192 38.3288 85.192ZM49.3248 85.192C48.0341 85.192 47.0101 84.776 46.2528 83.944C45.5061 83.1013 45.1328 82.0133 45.1328 80.68C45.1328 79.336 45.5275 78.2747 46.3168 77.496C47.1061 76.7067 48.1088 76.312 49.3248 76.312C50.6155 76.312 51.6341 76.7227 52.3808 77.544C53.1381 78.3653 53.5168 79.4107 53.5168 80.68C53.5168 82.0773 53.1275 83.1813 52.3488 83.992C51.5701 84.792 50.5621 85.192 49.3248 85.192ZM49.3248 83.896C50.1568 83.896 50.8128 83.592 51.2928 82.984C51.7835 82.376 52.0288 81.608 52.0288 80.68C52.0288 79.7627 51.7781 79.0213 51.2768 78.456C50.7861 77.8907 50.1355 77.608 49.3248 77.608C48.5141 77.608 47.8581 77.8907 47.3568 78.456C46.8661 79.0213 46.6208 79.7627 46.6208 80.68C46.6208 81.672 46.8768 82.456 47.3888 83.032C47.9008 83.608 48.5461 83.896 49.3248 83.896ZM59.3178 76.312C60.2671 76.312 61.0298 76.5947 61.6058 77.16C62.1818 77.7147 62.4698 78.4347 62.4698 79.32V85H60.9978V79.368C60.9978 78.824 60.8218 78.3973 60.4698 78.088C60.1178 77.7787 59.6645 77.624 59.1098 77.624C58.3738 77.624 57.7871 77.8373 57.3498 78.264C56.9125 78.68 56.6885 79.208 56.6778 79.848V85H55.1898V76.52H56.4218L56.5338 77.672C57.1311 76.7653 58.0591 76.312 59.3178 76.312ZM70.7762 76.52H72.2962L68.7602 85H67.1922L63.6562 76.52H65.2082L67.9922 83.192L70.7762 76.52ZM80.8675 80.456V81.096H74.3715C74.4249 81.9493 74.6969 82.632 75.1875 83.144C75.6782 83.6453 76.3129 83.896 77.0915 83.896C78.2542 83.896 79.0169 83.3787 79.3795 82.344H80.8355C80.6435 83.2293 80.2115 83.928 79.5395 84.44C78.8782 84.9413 78.0622 85.192 77.0915 85.192C75.8222 85.192 74.7982 84.7813 74.0195 83.96C73.2409 83.1387 72.8515 82.0827 72.8515 80.792C72.8515 79.3947 73.2409 78.3013 74.0195 77.512C74.8089 76.712 75.7795 76.312 76.9315 76.312C78.1155 76.312 79.0595 76.6853 79.7635 77.432C80.4782 78.168 80.8462 79.176 80.8675 80.456ZM78.5155 78.216C78.0995 77.8107 77.5715 77.608 76.9315 77.608C76.2915 77.608 75.7475 77.8053 75.2995 78.2C74.8622 78.5947 74.5742 79.144 74.4355 79.848H79.3155C79.2089 79.1653 78.9422 78.6213 78.5155 78.216ZM86.8372 76.456H87.1252V77.896H86.8372C85.9305 77.896 85.2372 78.1307 84.7572 78.6C84.2772 79.0587 84.0372 79.7253 84.0372 80.6V85H82.5492V76.52H83.7172L83.9092 78.168C84.4425 77.0267 85.4185 76.456 86.8372 76.456ZM92.9328 77.88H90.6768V82.472C90.6768 82.8453 90.7728 83.1333 90.9648 83.336C91.1568 83.5387 91.4235 83.64 91.7648 83.64H92.7888V85H91.7648C90.9541 85 90.3248 84.7813 89.8768 84.344C89.4288 83.9067 89.2048 83.2827 89.2048 82.472V77.88H87.6848V76.52H89.2048V74.52H90.6768V76.52H92.9328V77.88ZM98.8495 75.192C98.5402 75.192 98.2842 75.0907 98.0815 74.888C97.8789 74.6747 97.7775 74.4187 97.7775 74.12C97.7775 73.8213 97.8789 73.5707 98.0815 73.368C98.2842 73.1653 98.5402 73.064 98.8495 73.064C99.1482 73.064 99.3989 73.1653 99.6015 73.368C99.8042 73.5707 99.9055 73.8213 99.9055 74.12C99.9055 74.4187 99.8042 74.6747 99.6015 74.888C99.3989 75.0907 99.1482 75.192 98.8495 75.192ZM98.1135 85V76.52H99.5855V85H98.1135ZM111.56 76.312C112.467 76.312 113.198 76.5947 113.752 77.16C114.318 77.7253 114.6 78.4453 114.6 79.32V85H113.128V79.368C113.128 78.8133 112.952 78.3867 112.6 78.088C112.259 77.7787 111.843 77.624 111.352 77.624C110.616 77.624 110.03 77.832 109.592 78.248C109.155 78.664 108.931 79.1973 108.92 79.848V85H107.448V79.368C107.448 78.8133 107.272 78.3867 106.92 78.088C106.568 77.7787 106.131 77.624 105.608 77.624C104.904 77.624 104.334 77.8373 103.896 78.264C103.47 78.68 103.251 79.208 103.24 79.848V85H101.752V76.52H102.984L103.096 77.656C103.384 77.2293 103.774 76.8987 104.264 76.664C104.766 76.4293 105.31 76.312 105.896 76.312C106.515 76.312 107.059 76.456 107.528 76.744C108.008 77.0213 108.371 77.4107 108.616 77.912C108.883 77.4 109.278 77.0053 109.8 76.728C110.334 76.4507 110.92 76.312 111.56 76.312ZM124.005 83.64H124.421V85H123.749C123.279 85 122.895 84.904 122.597 84.712C122.309 84.5093 122.143 84.232 122.101 83.88C121.503 84.712 120.543 85.128 119.221 85.128C118.293 85.128 117.535 84.904 116.949 84.456C116.362 83.9973 116.069 83.4053 116.069 82.68C116.069 82.0293 116.271 81.5067 116.677 81.112C117.093 80.7173 117.589 80.456 118.165 80.328C118.751 80.1893 119.333 80.0933 119.909 80.04C120.495 79.976 120.991 79.9067 121.397 79.832C121.813 79.7467 122.021 79.608 122.021 79.416C122.021 78.84 121.839 78.392 121.477 78.072C121.125 77.7413 120.623 77.576 119.973 77.576C119.354 77.576 118.837 77.7147 118.421 77.992C118.015 78.2693 117.791 78.6267 117.749 79.064H116.277C116.362 78.2427 116.746 77.5813 117.429 77.08C118.111 76.568 118.959 76.312 119.973 76.312C121.082 76.312 121.941 76.5947 122.549 77.16C123.167 77.7253 123.477 78.5147 123.477 79.528V83.096C123.477 83.4587 123.653 83.64 124.005 83.64ZM119.413 83.896C120.266 83.896 120.911 83.6987 121.349 83.304C121.786 82.8987 122.01 82.36 122.021 81.688V80.776C121.903 80.9253 121.594 81.0373 121.093 81.112C120.591 81.176 120.085 81.224 119.573 81.256C119.061 81.2773 118.597 81.4 118.181 81.624C117.765 81.848 117.557 82.1787 117.557 82.616C117.557 83 117.727 83.3093 118.069 83.544C118.41 83.7787 118.858 83.896 119.413 83.896ZM132.422 76.52H133.59V84.728C133.59 85.8267 133.222 86.712 132.486 87.384C131.761 88.0667 130.801 88.408 129.606 88.408C128.433 88.408 127.489 88.1467 126.774 87.624C126.06 87.1013 125.702 86.3973 125.702 85.512H127.19C127.19 86.0133 127.409 86.408 127.846 86.696C128.294 86.984 128.881 87.128 129.606 87.128C130.364 87.128 130.972 86.904 131.43 86.456C131.889 86.0187 132.118 85.4427 132.118 84.728V83.88C131.468 84.7547 130.561 85.192 129.398 85.192C128.172 85.192 127.196 84.776 126.47 83.944C125.756 83.112 125.398 82.056 125.398 80.776C125.398 79.4 125.772 78.312 126.518 77.512C127.276 76.712 128.236 76.312 129.398 76.312C130.625 76.312 131.596 76.792 132.31 77.752L132.422 76.52ZM127.67 83.032C128.15 83.608 128.769 83.896 129.526 83.896C130.284 83.896 130.902 83.592 131.382 82.984C131.873 82.376 132.118 81.5973 132.118 80.648C132.118 79.752 131.873 79.0213 131.382 78.456C130.902 77.8907 130.284 77.608 129.526 77.608C128.769 77.608 128.15 77.9067 127.67 78.504C127.19 79.0907 126.95 79.848 126.95 80.776C126.95 81.6933 127.19 82.4453 127.67 83.032ZM143.289 80.456V81.096H136.793C136.847 81.9493 137.119 82.632 137.609 83.144C138.1 83.6453 138.735 83.896 139.513 83.896C140.676 83.896 141.439 83.3787 141.801 82.344H143.257C143.065 83.2293 142.633 83.928 141.961 84.44C141.3 84.9413 140.484 85.192 139.513 85.192C138.244 85.192 137.22 84.7813 136.441 83.96C135.663 83.1387 135.273 82.0827 135.273 80.792C135.273 79.3947 135.663 78.3013 136.441 77.512C137.231 76.712 138.201 76.312 139.353 76.312C140.537 76.312 141.481 76.6853 142.185 77.432C142.9 78.168 143.268 79.176 143.289 80.456ZM140.937 78.216C140.521 77.8107 139.993 77.608 139.353 77.608C138.713 77.608 138.169 77.8053 137.721 78.2C137.284 78.5947 136.996 79.144 136.857 79.848H141.737C141.631 79.1653 141.364 78.6213 140.937 78.216ZM148.155 85.192C147.067 85.192 146.203 84.9573 145.563 84.488C144.923 84.008 144.576 83.3413 144.523 82.488H145.995C146.038 82.9467 146.246 83.304 146.619 83.56C147.003 83.8053 147.52 83.928 148.171 83.928C148.704 83.928 149.131 83.8213 149.451 83.608C149.771 83.384 149.931 83.0907 149.931 82.728C149.931 82.3653 149.787 82.088 149.499 81.896C149.222 81.6933 148.736 81.5227 148.043 81.384C147.723 81.32 147.483 81.272 147.323 81.24C147.163 81.1973 146.928 81.1333 146.619 81.048C146.32 80.952 146.086 80.8453 145.915 80.728C145.755 80.6107 145.579 80.4667 145.387 80.296C145.206 80.1253 145.072 79.9173 144.987 79.672C144.902 79.4267 144.859 79.1493 144.859 78.84C144.859 78.104 145.158 77.5013 145.755 77.032C146.352 76.552 147.11 76.312 148.027 76.312C148.944 76.312 149.696 76.5413 150.283 77C150.87 77.4587 151.222 78.0933 151.339 78.904H149.883C149.712 78.0187 149.088 77.576 148.011 77.576C147.51 77.576 147.099 77.6933 146.779 77.928C146.47 78.152 146.315 78.4453 146.315 78.808C146.315 79.224 146.464 79.5227 146.763 79.704C147.072 79.8747 147.579 80.0293 148.283 80.168C148.656 80.2427 148.955 80.312 149.179 80.376C149.403 80.4293 149.67 80.52 149.979 80.648C150.299 80.776 150.55 80.92 150.731 81.08C150.912 81.24 151.067 81.4587 151.195 81.736C151.334 82.0133 151.403 82.328 151.403 82.68C151.403 83.4267 151.099 84.0347 150.491 84.504C149.894 84.9627 149.115 85.192 148.155 85.192Z" fill="#495057"/>
<path d="M20.0088 116.5V105.5L9.00879 107.5V118.5" stroke="#939FEE" stroke-width="1.5" stroke-linecap="round" stroke-linejoin="round"/>
<path d="M17.0088 121.5H18.0088C18.5392 121.5 19.0479 121.289 19.423 120.914C19.7981 120.539 20.0088 120.03 20.0088 119.5V116.5H17.0088C16.4784 116.5 15.9696 116.711 15.5946 117.086C15.2195 117.461 15.0088 117.97 15.0088 118.5V119.5C15.0088 120.03 15.2195 120.539 15.5946 120.914C15.9696 121.289 16.4784 121.5 17.0088 121.5ZM6.00879 123.5H7.00879C7.53922 123.5 8.04793 123.289 8.423 122.914C8.79807 122.539 9.00879 122.03 9.00879 121.5V118.5H6.00879C5.47836 118.5 4.96965 118.711 4.59458 119.086C4.2195 119.461 4.00879 119.97 4.00879 120.5V121.5C4.00879 122.03 4.2195 122.539 4.59458 122.914C4.96965 123.289 5.47836 123.5 6.00879 123.5Z" stroke="#939FEE" stroke-width="1.5" stroke-linecap="round" stroke-linejoin="round"/>
<path d="M38.3288 119.192C36.6541 119.192 35.3155 118.653 34.3128 117.576C33.3208 116.499 32.8248 115.096 32.8248 113.368C32.8248 111.661 33.3261 110.275 34.3288 109.208C35.3315 108.141 36.6701 107.608 38.3448 107.608C39.7955 107.608 40.9848 108.003 41.9128 108.792C42.8515 109.581 43.4435 110.685 43.6888 112.104H42.1368C41.9341 111.123 41.4968 110.36 40.8248 109.816C40.1635 109.272 39.3368 109 38.3448 109C37.1288 109 36.1688 109.395 35.4648 110.184C34.7608 110.963 34.4088 112.024 34.4088 113.368C34.4088 114.744 34.7608 115.827 35.4648 116.616C36.1688 117.405 37.1235 117.8 38.3288 117.8C39.3421 117.8 40.1741 117.533 40.8248 117C41.4861 116.467 41.9235 115.699 42.1368 114.696H43.6888C43.4435 116.147 42.8568 117.261 41.9288 118.04C41.0008 118.808 39.8008 119.192 38.3288 119.192ZM49.8528 110.456H50.1408V111.896H49.8528C48.9461 111.896 48.2528 112.131 47.7728 112.6C47.2928 113.059 47.0528 113.725 47.0528 114.6V119H45.5648V110.52H46.7328L46.9248 112.168C47.4581 111.027 48.4341 110.456 49.8528 110.456ZM58.7582 114.456V115.096H52.2622C52.3155 115.949 52.5875 116.632 53.0782 117.144C53.5688 117.645 54.2035 117.896 54.9822 117.896C56.1448 117.896 56.9075 117.379 57.2702 116.344H58.7262C58.5342 117.229 58.1022 117.928 57.4302 118.44C56.7688 118.941 55.9528 119.192 54.9822 119.192C53.7128 119.192 52.6888 118.781 51.9102 117.96C51.1315 117.139 50.7422 116.083 50.7422 114.792C50.7422 113.395 51.1315 112.301 51.9102 111.512C52.6995 110.712 53.6702 110.312 54.8222 110.312C56.0062 110.312 56.9502 110.685 57.6542 111.432C58.3688 112.168 58.7368 113.176 58.7582 114.456ZM56.4062 112.216C55.9902 111.811 55.4622 111.608 54.8222 111.608C54.1822 111.608 53.6382 111.805 53.1902 112.2C52.7528 112.595 52.4648 113.144 52.3262 113.848H57.2062C57.0995 113.165 56.8328 112.621 56.4062 112.216ZM67.8798 117.64H68.2958V119H67.6238C67.1545 119 66.7705 118.904 66.4718 118.712C66.1838 118.509 66.0185 118.232 65.9758 117.88C65.3785 118.712 64.4185 119.128 63.0958 119.128C62.1678 119.128 61.4105 118.904 60.8238 118.456C60.2371 117.997 59.9438 117.405 59.9438 116.68C59.9438 116.029 60.1465 115.507 60.5518 115.112C60.9678 114.717 61.4638 114.456 62.0398 114.328C62.6265 114.189 63.2078 114.093 63.7838 114.04C64.3705 113.976 64.8665 113.907 65.2718 113.832C65.6878 113.747 65.8958 113.608 65.8958 113.416C65.8958 112.84 65.7145 112.392 65.3518 112.072C64.9998 111.741 64.4985 111.576 63.8478 111.576C63.2291 111.576 62.7118 111.715 62.2958 111.992C61.8905 112.269 61.6665 112.627 61.6238 113.064H60.1518C60.2371 112.243 60.6211 111.581 61.3038 111.08C61.9865 110.568 62.8345 110.312 63.8478 110.312C64.9571 110.312 65.8158 110.595 66.4238 111.16C67.0425 111.725 67.3518 112.515 67.3518 113.528V117.096C67.3518 117.459 67.5278 117.64 67.8798 117.64ZM63.2878 117.896C64.1411 117.896 64.7865 117.699 65.2238 117.304C65.6611 116.899 65.8851 116.36 65.8958 115.688V114.776C65.7785 114.925 65.4691 115.037 64.9678 115.112C64.4665 115.176 63.9598 115.224 63.4478 115.256C62.9358 115.277 62.4718 115.4 62.0558 115.624C61.6398 115.848 61.4318 116.179 61.4318 116.616C61.4318 117 61.6025 117.309 61.9438 117.544C62.2851 117.779 62.7331 117.896 63.2878 117.896ZM74.0734 111.88H71.8174V116.472C71.8174 116.845 71.9134 117.133 72.1054 117.336C72.2974 117.539 72.5641 117.64 72.9054 117.64H73.9294V119H72.9054C72.0947 119 71.4654 118.781 71.0174 118.344C70.5694 117.907 70.3454 117.283 70.3454 116.472V111.88H68.8254V110.52H70.3454V108.52H71.8174V110.52H74.0734V111.88ZM82.9457 114.456V115.096H76.4497C76.503 115.949 76.775 116.632 77.2657 117.144C77.7563 117.645 78.391 117.896 79.1697 117.896C80.3323 117.896 81.095 117.379 81.4577 116.344H82.9137C82.7217 117.229 82.2897 117.928 81.6177 118.44C80.9563 118.941 80.1403 119.192 79.1697 119.192C77.9003 119.192 76.8763 118.781 76.0977 117.96C75.319 117.139 74.9297 116.083 74.9297 114.792C74.9297 113.395 75.319 112.301 76.0977 111.512C76.887 110.712 77.8577 110.312 79.0097 110.312C80.1937 110.312 81.1377 110.685 81.8417 111.432C82.5563 112.168 82.9243 113.176 82.9457 114.456ZM80.5937 112.216C80.1777 111.811 79.6497 111.608 79.0097 111.608C78.3697 111.608 77.8257 111.805 77.3777 112.2C76.9403 112.595 76.6523 113.144 76.5137 113.848H81.3937C81.287 113.165 81.0203 112.621 80.5937 112.216ZM95.6767 117.64H96.0927V119H95.4207C94.9513 119 94.5673 118.904 94.2687 118.712C93.9807 118.509 93.8153 118.232 93.7727 117.88C93.1753 118.712 92.2153 119.128 90.8927 119.128C89.9647 119.128 89.2073 118.904 88.6207 118.456C88.034 117.997 87.7407 117.405 87.7407 116.68C87.7407 116.029 87.9433 115.507 88.3487 115.112C88.7647 114.717 89.2607 114.456 89.8367 114.328C90.4233 114.189 91.0047 114.093 91.5807 114.04C92.1673 113.976 92.6633 113.907 93.0687 113.832C93.4847 113.747 93.6927 113.608 93.6927 113.416C93.6927 112.84 93.5113 112.392 93.1487 112.072C92.7967 111.741 92.2953 111.576 91.6447 111.576C91.026 111.576 90.5087 111.715 90.0927 111.992C89.6873 112.269 89.4633 112.627 89.4207 113.064H87.9487C88.034 112.243 88.418 111.581 89.1007 111.08C89.7833 110.568 90.6313 110.312 91.6447 110.312C92.754 110.312 93.6127 110.595 94.2207 111.16C94.8393 111.725 95.1487 112.515 95.1487 113.528V117.096C95.1487 117.459 95.3247 117.64 95.6767 117.64ZM91.0847 117.896C91.938 117.896 92.5833 117.699 93.0207 117.304C93.458 116.899 93.682 116.36 93.6927 115.688V114.776C93.5753 114.925 93.266 115.037 92.7647 115.112C92.2633 115.176 91.7567 115.224 91.2447 115.256C90.7327 115.277 90.2687 115.4 89.8527 115.624C89.4367 115.848 89.2287 116.179 89.2287 116.616C89.2287 117 89.3993 117.309 89.7407 117.544C90.082 117.779 90.53 117.896 91.0847 117.896ZM110.92 110.312C111.826 110.312 112.557 110.595 113.112 111.16C113.677 111.725 113.96 112.445 113.96 113.32V119H112.488V113.368C112.488 112.813 112.312 112.387 111.96 112.088C111.618 111.779 111.202 111.624 110.712 111.624C109.976 111.624 109.389 111.832 108.952 112.248C108.514 112.664 108.29 113.197 108.28 113.848V119H106.808V113.368C106.808 112.813 106.632 112.387 106.28 112.088C105.928 111.779 105.49 111.624 104.968 111.624C104.264 111.624 103.693 111.837 103.256 112.264C102.829 112.68 102.61 113.208 102.6 113.848V119H101.112V110.52H102.344L102.456 111.656C102.744 111.229 103.133 110.899 103.624 110.664C104.125 110.429 104.669 110.312 105.256 110.312C105.874 110.312 106.418 110.456 106.888 110.744C107.368 111.021 107.73 111.411 107.976 111.912C108.242 111.4 108.637 111.005 109.16 110.728C109.693 110.451 110.28 110.312 110.92 110.312ZM123.508 114.456V115.096H117.012C117.065 115.949 117.337 116.632 117.828 117.144C118.319 117.645 118.953 117.896 119.732 117.896C120.895 117.896 121.657 117.379 122.02 116.344H123.476C123.284 117.229 122.852 117.928 122.18 118.44C121.519 118.941 120.703 119.192 119.732 119.192C118.463 119.192 117.439 118.781 116.66 117.96C115.881 117.139 115.492 116.083 115.492 114.792C115.492 113.395 115.881 112.301 116.66 111.512C117.449 110.712 118.42 110.312 119.572 110.312C120.756 110.312 121.7 110.685 122.404 111.432C123.119 112.168 123.487 113.176 123.508 114.456ZM121.156 112.216C120.74 111.811 120.212 111.608 119.572 111.608C118.932 111.608 118.388 111.805 117.94 112.2C117.503 112.595 117.215 113.144 117.076 113.848H121.956C121.849 113.165 121.583 112.621 121.156 112.216ZM125.302 119V107H126.806V119H125.302ZM132.778 119.192C131.487 119.192 130.463 118.776 129.706 117.944C128.959 117.101 128.586 116.013 128.586 114.68C128.586 113.336 128.981 112.275 129.77 111.496C130.559 110.707 131.562 110.312 132.778 110.312C134.069 110.312 135.087 110.723 135.834 111.544C136.591 112.365 136.97 113.411 136.97 114.68C136.97 116.077 136.581 117.181 135.802 117.992C135.023 118.792 134.015 119.192 132.778 119.192ZM132.778 117.896C133.61 117.896 134.266 117.592 134.746 116.984C135.237 116.376 135.482 115.608 135.482 114.68C135.482 113.763 135.231 113.021 134.73 112.456C134.239 111.891 133.589 111.608 132.778 111.608C131.967 111.608 131.311 111.891 130.81 112.456C130.319 113.021 130.074 113.763 130.074 114.68C130.074 115.672 130.33 116.456 130.842 117.032C131.354 117.608 131.999 117.896 132.778 117.896ZM144.899 107H146.387V119H145.235L145.011 117.768C144.35 118.717 143.416 119.192 142.211 119.192C140.984 119.192 140.008 118.776 139.283 117.944C138.568 117.112 138.211 116.056 138.211 114.776C138.211 113.4 138.584 112.312 139.331 111.512C140.088 110.712 141.048 110.312 142.211 110.312C143.288 110.312 144.184 110.701 144.899 111.48V107ZM142.339 117.896C143.064 117.896 143.667 117.613 144.147 117.048C144.627 116.483 144.888 115.752 144.931 114.856V114.44C144.888 113.597 144.627 112.915 144.147 112.392C143.667 111.869 143.064 111.608 142.339 111.608C141.582 111.608 140.963 111.907 140.483 112.504C140.003 113.091 139.763 113.848 139.763 114.776C139.763 115.693 140.003 116.445 140.483 117.032C140.963 117.608 141.582 117.896 142.339 117.896ZM154.534 110.52H156.054L152.342 120.552C151.947 121.576 151.067 122.088 149.702 122.088H148.39V120.744H149.702C150.385 120.744 150.817 120.504 150.998 120.024L151.382 119H150.998L147.75 110.52H149.334L151.926 117.528L154.534 110.52Z" fill="#495057"/>
<path d="M4.00879 142.5V140.1C4.00879 139.941 4.072 139.788 4.18453 139.676C4.29705 139.563 4.44966 139.5 4.60879 139.5H19.4088C19.5679 139.5 19.7205 139.563 19.8331 139.676C19.9456 139.788 20.0088 139.941 20.0088 140.1V142.5M4.00879 154.5V156.9C4.00879 157.059 4.072 157.212 4.18453 157.324C4.29705 157.437 4.44966 157.5 4.60879 157.5H19.4088C19.5679 157.5 19.7205 157.437 19.8331 157.324C19.9456 157.212 20.0088 157.059 20.0088 156.9V154.5" stroke="#939FEE" stroke-width="1.5" stroke-linecap="round"/>
<path d="M15.5088 151.5V145.5H18.5088M15.5088 148.5H17.5088M12.0088 151.5V145.5M8.50879 145.5H5.50879V151.5H8.50879V149.1" stroke="#939FEE" stroke-width="1.5" stroke-linecap="round" stroke-linejoin="round"/>
<path d="M38.3288 153.192C36.6541 153.192 35.3155 152.653 34.3128 151.576C33.3208 150.499 32.8248 149.096 32.8248 147.368C32.8248 145.661 33.3261 144.275 34.3288 143.208C35.3315 142.141 36.6701 141.608 38.3448 141.608C39.7955 141.608 40.9848 142.003 41.9128 142.792C42.8515 143.581 43.4435 144.685 43.6888 146.104H42.1368C41.9341 145.123 41.4968 144.36 40.8248 143.816C40.1635 143.272 39.3368 143 38.3448 143C37.1288 143 36.1688 143.395 35.4648 144.184C34.7608 144.963 34.4088 146.024 34.4088 147.368C34.4088 148.744 34.7608 149.827 35.4648 150.616C36.1688 151.405 37.1235 151.8 38.3288 151.8C39.3421 151.8 40.1741 151.533 40.8248 151C41.4861 150.467 41.9235 149.699 42.1368 148.696H43.6888C43.4435 150.147 42.8568 151.261 41.9288 152.04C41.0008 152.808 39.8008 153.192 38.3288 153.192ZM49.8528 144.456H50.1408V145.896H49.8528C48.9461 145.896 48.2528 146.131 47.7728 146.6C47.2928 147.059 47.0528 147.725 47.0528 148.6V153H45.5648V144.52H46.7328L46.9248 146.168C47.4581 145.027 48.4341 144.456 49.8528 144.456ZM58.7582 148.456V149.096H52.2622C52.3155 149.949 52.5875 150.632 53.0782 151.144C53.5688 151.645 54.2035 151.896 54.9822 151.896C56.1448 151.896 56.9075 151.379 57.2702 150.344H58.7262C58.5342 151.229 58.1022 151.928 57.4302 152.44C56.7688 152.941 55.9528 153.192 54.9822 153.192C53.7128 153.192 52.6888 152.781 51.9102 151.96C51.1315 151.139 50.7422 150.083 50.7422 148.792C50.7422 147.395 51.1315 146.301 51.9102 145.512C52.6995 144.712 53.6702 144.312 54.8222 144.312C56.0062 144.312 56.9502 144.685 57.6542 145.432C58.3688 146.168 58.7368 147.176 58.7582 148.456ZM56.4062 146.216C55.9902 145.811 55.4622 145.608 54.8222 145.608C54.1822 145.608 53.6382 145.805 53.1902 146.2C52.7528 146.595 52.4648 147.144 52.3262 147.848H57.2062C57.0995 147.165 56.8328 146.621 56.4062 146.216ZM67.8798 151.64H68.2958V153H67.6238C67.1545 153 66.7705 152.904 66.4718 152.712C66.1838 152.509 66.0185 152.232 65.9758 151.88C65.3785 152.712 64.4185 153.128 63.0958 153.128C62.1678 153.128 61.4105 152.904 60.8238 152.456C60.2371 151.997 59.9438 151.405 59.9438 150.68C59.9438 150.029 60.1465 149.507 60.5518 149.112C60.9678 148.717 61.4638 148.456 62.0398 148.328C62.6265 148.189 63.2078 148.093 63.7838 148.04C64.3705 147.976 64.8665 147.907 65.2718 147.832C65.6878 147.747 65.8958 147.608 65.8958 147.416C65.8958 146.84 65.7145 146.392 65.3518 146.072C64.9998 145.741 64.4985 145.576 63.8478 145.576C63.2291 145.576 62.7118 145.715 62.2958 145.992C61.8905 146.269 61.6665 146.627 61.6238 147.064H60.1518C60.2371 146.243 60.6211 145.581 61.3038 145.08C61.9865 144.568 62.8345 144.312 63.8478 144.312C64.9571 144.312 65.8158 144.595 66.4238 145.16C67.0425 145.725 67.3518 146.515 67.3518 147.528V151.096C67.3518 151.459 67.5278 151.64 67.8798 151.64ZM63.2878 151.896C64.1411 151.896 64.7865 151.699 65.2238 151.304C65.6611 150.899 65.8851 150.36 65.8958 149.688V148.776C65.7785 148.925 65.4691 149.037 64.9678 149.112C64.4665 149.176 63.9598 149.224 63.4478 149.256C62.9358 149.277 62.4718 149.4 62.0558 149.624C61.6398 149.848 61.4318 150.179 61.4318 150.616C61.4318 151 61.6025 151.309 61.9438 151.544C62.2851 151.779 62.7331 151.896 63.2878 151.896ZM74.0734 145.88H71.8174V150.472C71.8174 150.845 71.9134 151.133 72.1054 151.336C72.2974 151.539 72.5641 151.64 72.9054 151.64H73.9294V153H72.9054C72.0947 153 71.4654 152.781 71.0174 152.344C70.5694 151.907 70.3454 151.283 70.3454 150.472V145.88H68.8254V144.52H70.3454V142.52H71.8174V144.52H74.0734V145.88ZM82.9457 148.456V149.096H76.4497C76.503 149.949 76.775 150.632 77.2657 151.144C77.7563 151.645 78.391 151.896 79.1697 151.896C80.3323 151.896 81.095 151.379 81.4577 150.344H82.9137C82.7217 151.229 82.2897 151.928 81.6177 152.44C80.9563 152.941 80.1403 153.192 79.1697 153.192C77.9003 153.192 76.8763 152.781 76.0977 151.96C75.319 151.139 74.9297 150.083 74.9297 148.792C74.9297 147.395 75.319 146.301 76.0977 145.512C76.887 144.712 77.8577 144.312 79.0097 144.312C80.1937 144.312 81.1377 144.685 81.8417 145.432C82.5563 146.168 82.9243 147.176 82.9457 148.456ZM80.5937 146.216C80.1777 145.811 79.6497 145.608 79.0097 145.608C78.3697 145.608 77.8257 145.805 77.3777 146.2C76.9403 146.595 76.6523 147.144 76.5137 147.848H81.3937C81.287 147.165 81.0203 146.621 80.5937 146.216ZM96.8767 147.288C97.4847 147.288 97.9487 147.443 98.2687 147.752C98.5887 148.051 98.7487 148.493 98.7487 149.08V153H97.4847V149.08H97.4527C97.3673 150.36 96.978 151.368 96.2847 152.104C95.5913 152.829 94.6633 153.192 93.5007 153.192C91.8367 153.192 90.5033 152.664 89.5007 151.608C88.498 150.552 87.9967 149.139 87.9967 147.368C87.9967 145.651 88.4927 144.264 89.4847 143.208C90.4767 142.141 91.8153 141.608 93.5007 141.608C94.93 141.608 96.114 142.008 97.0527 142.808C98.002 143.608 98.594 144.707 98.8287 146.104H97.2767C97.074 145.123 96.642 144.36 95.9807 143.816C95.33 143.272 94.5033 143 93.5007 143C92.2847 143 91.3247 143.395 90.6207 144.184C89.9167 144.963 89.5647 146.024 89.5647 147.368C89.5647 148.733 89.922 149.816 90.6367 150.616C91.3513 151.405 92.306 151.8 93.5007 151.8C94.45 151.8 95.2127 151.507 95.7887 150.92C96.3647 150.323 96.6527 149.539 96.6527 148.568H92.9727V147.288H96.8767ZM101.214 153V141.8H102.718V153H101.214ZM113.19 143.192H106.95V146.616H112.71V148.008H106.95V153H105.446V141.8H113.19V143.192ZM118.077 153.192C116.989 153.192 116.125 152.957 115.485 152.488C114.845 152.008 114.498 151.341 114.445 150.488H115.917C115.96 150.947 116.168 151.304 116.541 151.56C116.925 151.805 117.442 151.928 118.093 151.928C118.626 151.928 119.053 151.821 119.373 151.608C119.693 151.384 119.853 151.091 119.853 150.728C119.853 150.365 119.709 150.088 119.421 149.896C119.144 149.693 118.658 149.523 117.965 149.384C117.645 149.32 117.405 149.272 117.245 149.24C117.085 149.197 116.85 149.133 116.541 149.048C116.242 148.952 116.008 148.845 115.837 148.728C115.677 148.611 115.501 148.467 115.309 148.296C115.128 148.125 114.994 147.917 114.909 147.672C114.824 147.427 114.781 147.149 114.781 146.84C114.781 146.104 115.08 145.501 115.677 145.032C116.274 144.552 117.032 144.312 117.949 144.312C118.866 144.312 119.618 144.541 120.205 145C120.792 145.459 121.144 146.093 121.261 146.904H119.805C119.634 146.019 119.01 145.576 117.933 145.576C117.432 145.576 117.021 145.693 116.701 145.928C116.392 146.152 116.237 146.445 116.237 146.808C116.237 147.224 116.386 147.523 116.685 147.704C116.994 147.875 117.501 148.029 118.205 148.168C118.578 148.243 118.877 148.312 119.101 148.376C119.325 148.429 119.592 148.52 119.901 148.648C120.221 148.776 120.472 148.92 120.653 149.08C120.834 149.24 120.989 149.459 121.117 149.736C121.256 150.013 121.325 150.328 121.325 150.68C121.325 151.427 121.021 152.035 120.413 152.504C119.816 152.963 119.037 153.192 118.077 153.192Z" fill="#495057"/>
</svg>
