<svg width="33" height="32" viewBox="0 0 33 32" fill="none" xmlns="http://www.w3.org/2000/svg">
<path d="M25.833 13.332L25.833 9.33203C25.833 7.91754 25.2711 6.56099 24.2709 5.5608C23.2707 4.5606 21.9142 3.9987 20.4997 3.9987L15.1663 3.9987" stroke="#303D90" stroke-width="1.5" stroke-linecap="round" stroke-linejoin="round"/>
<path d="M29.166 9.9987L25.8327 13.332L22.4993 9.9987" stroke="#303D90" stroke-width="1.5" stroke-linecap="round" stroke-linejoin="round"/>
<path d="M19.167 14.963L19.167 26.3704C19.167 26.8026 18.9953 27.2171 18.6897 27.5227C18.3841 27.8283 17.9696 28 17.5374 28L6.12996 28C5.69775 28 5.28325 27.8283 4.97763 27.5227C4.67202 27.2171 4.50033 26.8026 4.50033 26.3704L4.50033 14.963C4.50033 14.5308 4.67202 14.1163 4.97763 13.8106C5.28325 13.505 5.69775 13.3333 6.12996 13.3333L17.5374 13.3333C17.9696 13.3333 18.3841 13.505 18.6897 13.8106C18.9953 14.1163 19.167 14.5308 19.167 14.963Z" stroke="#303D90" stroke-width="1.5"/>
</svg>
