<svg width="24" height="24" viewBox="0 0 24 24" fill="none" xmlns="http://www.w3.org/2000/svg">
<path d="M17 11.9998H18M22 11.9998H23M6.23598 6.99981C6.50131 6.70662 6.70607 6.36385 6.83846 5.99124C6.97085 5.61863 7.02828 5.22352 7.00743 4.82864C6.98658 4.43376 6.88787 4.04689 6.71697 3.6903C6.54608 3.3337 6.30637 3.01441 6.01164 2.75078C5.7169 2.48715 5.37296 2.2844 4.99958 2.15417C4.62621 2.02394 4.23077 1.96882 3.83602 1.99196C3.44126 2.0151 3.05498 2.11606 2.69938 2.28903C2.34378 2.46199 2.02589 2.70355 1.76398 2.99981C1.23899 3.59366 0.970353 4.37113 1.01674 5.1624C1.06313 5.95367 1.42078 6.69443 2.01157 7.22285C2.60235 7.75128 3.37825 8.02443 4.16978 7.98264C4.9613 7.94085 5.70412 7.58751 6.23598 6.99981ZM6.23598 6.99981L19 17.9998M6.23598 16.9998C6.50131 17.293 6.70607 17.6358 6.83846 18.0084C6.97085 18.381 7.02828 18.7761 7.00743 19.171C6.98658 19.5659 6.88787 19.9527 6.71697 20.3093C6.54608 20.6659 6.30637 20.9852 6.01164 21.2488C5.7169 21.5125 5.37296 21.7152 4.99958 21.8455C4.62621 21.9757 4.23077 22.0308 3.83602 22.0077C3.44126 21.9845 3.05498 21.8836 2.69938 21.7106C2.34378 21.5376 2.02589 21.2961 1.76398 20.9998C1.23899 20.406 0.970353 19.6285 1.01674 18.8372C1.06313 18.046 1.42078 17.3052 2.01157 16.7768C2.60235 16.2483 3.37825 15.9752 4.16978 16.017C4.9613 16.0588 5.70412 16.4121 6.23598 16.9998ZM6.23598 16.9998L19 5.99981" stroke="#F1ABFB" stroke-width="1.5" stroke-linecap="round" stroke-linejoin="round"/>
</svg>
