<svg width="24" height="24" viewBox="0 0 24 24" fill="none" xmlns="http://www.w3.org/2000/svg">
<path d="M21 7.6V20.4C21 20.5591 20.9368 20.7117 20.8243 20.8243C20.7117 20.9368 20.5591 21 20.4 21H7.6C7.44087 21 7.28826 20.9368 7.17574 20.8243C7.06321 20.7117 7 20.5591 7 20.4V7.6C7 7.44087 7.06321 7.28826 7.17574 7.17574C7.28826 7.06321 7.44087 7 7.6 7H20.4C20.5591 7 20.7117 7.06321 20.8243 7.17574C20.9368 7.28826 21 7.44087 21 7.6Z" stroke="#4C60E4" stroke-width="1.5" stroke-linecap="round" stroke-linejoin="round"/>
<path d="M18 4H4.6C4.44087 4 4.28826 4.06321 4.17574 4.17574C4.06321 4.28826 4 4.44087 4 4.6V18M12.909 11.545C12.8179 11.4903 12.7139 11.4607 12.6077 11.4594C12.5014 11.458 12.3967 11.4849 12.3042 11.5373C12.2118 11.5897 12.1349 11.6657 12.0814 11.7575C12.028 11.8493 11.9999 11.9537 12 12.06V15.94C11.9999 16.0463 12.028 16.1507 12.0814 16.2425C12.1349 16.3343 12.2118 16.4103 12.3042 16.4627C12.3967 16.5151 12.5014 16.542 12.6077 16.5406C12.7139 16.5393 12.8179 16.5097 12.909 16.455L16.142 14.515C16.2311 14.4618 16.3048 14.3863 16.356 14.296C16.4072 14.2058 16.4341 14.1038 16.4341 14C16.4341 13.8962 16.4072 13.7942 16.356 13.704C16.3048 13.6137 16.2311 13.5382 16.142 13.485L12.909 11.545Z" stroke="#4C60E4" stroke-width="1.5" stroke-linecap="round" stroke-linejoin="round"/>
</svg>
