<svg width="24" height="24" viewBox="0 0 24 24" fill="none" xmlns="http://www.w3.org/2000/svg">
<path d="M20 14V3L9 5V16" stroke="#F1ABFB" stroke-width="1.5" stroke-linecap="round" stroke-linejoin="round"/>
<path d="M17 19H18C18.5304 19 19.0391 18.7893 19.4142 18.4142C19.7893 18.0391 20 17.5304 20 17V14H17C16.4696 14 15.9609 14.2107 15.5858 14.5858C15.2107 14.9609 15 15.4696 15 16V17C15 17.5304 15.2107 18.0391 15.5858 18.4142C15.9609 18.7893 16.4696 19 17 19ZM6 21H7C7.53043 21 8.03914 20.7893 8.41421 20.4142C8.78929 20.0391 9 19.5304 9 19V16H6C5.46957 16 4.96086 16.2107 4.58579 16.5858C4.21071 16.9609 4 17.4696 4 18V19C4 19.5304 4.21071 20.0391 4.58579 20.4142C4.96086 20.7893 5.46957 21 6 21Z" stroke="#F1ABFB" stroke-width="1.5" stroke-linecap="round" stroke-linejoin="round"/>
</svg>
