<svg width="24" height="24" viewBox="0 0 24 24" fill="none" xmlns="http://www.w3.org/2000/svg">
<path d="M16.6667 12.5H18.3C18.4857 12.5 18.6637 12.5751 18.795 12.7087C18.9263 12.8423 19 13.0235 19 13.2125V21.2875C19 21.4765 18.9263 21.6577 18.795 21.7913C18.6637 21.9249 18.4857 22 18.3 22H5.7C5.51435 22 5.3363 21.9249 5.20503 21.7913C5.07375 21.6577 5 21.4765 5 21.2875V13.2125C5 13.0235 5.07375 12.8423 5.20503 12.7087C5.3363 12.5751 5.51435 12.5 5.7 12.5H7.33333M16.6667 12.5V7.75C16.6667 6.16706 15.7333 3 12 3C8.26667 3 7.33333 6.16706 7.33333 7.75V12.5M16.6667 12.5H7.33333" stroke="#495057" stroke-width="1.5" stroke-linecap="round" stroke-linejoin="round"/>
</svg>
