<svg width="203" height="115" viewBox="0 0 203 115" fill="none" xmlns="http://www.w3.org/2000/svg">
<g filter="url(#filter0_d_357_6656)">
<rect x="5.00879" y="58.2266" width="194" height="48" rx="16" transform="rotate(0.229053 5.00879 58.2266)" fill="#EACEFF" shape-rendering="crispEdges"/>
<path d="M59.7076 75.7452L61.2116 75.7512L61.1821 83.1431C61.1774 84.3058 60.7683 85.2641 59.9546 86.0182C59.1516 86.7617 58.0514 87.1306 56.6541 87.125C55.2568 87.1195 54.1543 86.7417 53.3466 85.9918C52.539 85.2312 52.1375 84.2696 52.1421 83.107L52.1717 75.715L53.6917 75.7211L53.6623 83.0811C53.659 83.8917 53.9338 84.5328 54.4866 85.0044C55.0501 85.4653 55.7745 85.6975 56.6598 85.7011C57.5451 85.7046 58.266 85.4781 58.8225 85.0217C59.3897 84.5546 59.675 83.9158 59.6782 83.1051L59.7076 75.7452ZM67.5979 78.2887C68.5472 78.2925 69.3088 78.5782 69.8825 79.1459C70.4563 79.7028 70.7414 80.424 70.7379 81.3093L70.7151 86.9893L69.2432 86.9834L69.2657 81.3514C69.2678 80.8074 69.0936 80.3801 68.7428 80.0693C68.392 79.7586 67.9393 79.6021 67.3847 79.5999C66.6487 79.5969 66.0612 79.8079 65.6221 80.2328C65.1831 80.6471 64.957 81.1742 64.9438 81.8141L64.9232 86.9661L63.4352 86.9602L63.4691 78.4802L64.7011 78.4851L64.8085 79.6376C65.4094 78.7333 66.3392 78.2837 67.5979 78.2887ZM72.7815 86.9975L72.8295 74.9976L74.3335 75.0036L74.2855 87.0035L72.7815 86.9975ZM77.3528 77.2077C77.0435 77.2065 76.7879 77.1041 76.586 76.9006C76.3842 76.6865 76.2839 76.4301 76.2851 76.1314C76.2863 75.8328 76.3886 75.5825 76.5921 75.3807C76.7956 75.1788 77.052 75.0785 77.3613 75.0797C77.66 75.0809 77.9102 75.1833 78.1121 75.3867C78.3139 75.5902 78.4143 75.8413 78.4131 76.1399C78.4119 76.4386 78.3095 76.6942 78.106 76.9067C77.9025 77.1086 77.6515 77.2089 77.3528 77.2077ZM76.5776 87.0127L76.6115 78.5328L78.0835 78.5386L78.0496 87.0186L76.5776 87.0127ZM90.059 78.3785C90.9656 78.3821 91.6952 78.6677 92.2476 79.2353C92.8106 79.8029 93.0904 80.524 93.0869 81.3986L93.0642 87.0786L91.5922 87.0727L91.6147 81.4408C91.617 80.8861 91.4427 80.4587 91.0919 80.1587C90.7518 79.848 90.3364 79.6916 89.8457 79.6897C89.1097 79.6867 88.5222 79.8924 88.0833 80.3066C87.6443 80.7209 87.4181 81.2533 87.4049 81.9039L87.3843 87.0559L85.9123 87.05L85.9348 81.4181C85.937 80.8634 85.7627 80.436 85.4119 80.136C85.0612 79.8252 84.6244 79.6688 84.1018 79.6667C83.3978 79.6639 82.8263 79.8749 82.3872 80.2999C81.9589 80.7142 81.7381 81.2413 81.7249 81.8812L81.7043 87.0332L80.2163 87.0272L80.2502 78.5473L81.4822 78.5522L81.5897 79.6887C81.8794 79.2632 82.27 78.9341 82.7616 78.7013C83.2639 78.4687 83.8084 78.3535 84.395 78.3559C85.0137 78.3583 85.5571 78.5045 86.0253 78.7944C86.5042 79.0736 86.8653 79.4644 87.1086 79.9667C87.3773 79.4558 87.7736 79.0627 88.2973 78.7875C88.8318 78.5123 89.419 78.376 90.059 78.3785ZM95.8839 77.2818C95.5746 77.2806 95.319 77.1782 95.1171 76.9747C94.9153 76.7606 94.815 76.5042 94.8162 76.2055C94.8174 75.9069 94.9197 75.6566 95.1232 75.4547C95.3267 75.2529 95.5831 75.1526 95.8924 75.1538C96.1911 75.155 96.4413 75.2573 96.6432 75.4608C96.845 75.6643 96.9454 75.9154 96.9442 76.214C96.943 76.5127 96.8406 76.7683 96.6371 76.9808C96.4336 77.1827 96.1826 77.283 95.8839 77.2818ZM95.1087 87.0868L95.1426 78.6068L96.6146 78.6127L96.5807 87.0927L95.1087 87.0868ZM103.144 79.9988L100.888 79.9898L100.87 84.5818C100.868 84.9551 100.963 85.2435 101.154 85.4469C101.345 85.6504 101.612 85.7528 101.953 85.7541L102.977 85.7582L102.971 87.1182L101.947 87.1141C101.137 87.1109 100.508 86.8897 100.062 86.4506C99.6158 86.0115 99.3943 85.3866 99.3975 84.5759L99.4159 79.9839L97.8959 79.9779L97.9013 78.6179L99.4213 78.6239L99.4293 76.624L100.901 76.6298L100.893 78.6298L103.149 78.6389L103.144 79.9988ZM112.006 82.6103L112.003 83.2503L105.507 83.2243C105.557 84.0779 105.826 84.7616 106.315 85.2756C106.804 85.7789 107.437 86.0321 108.216 86.0352C109.379 86.0398 110.143 85.5255 110.51 84.4923L111.966 84.4981C111.771 85.3827 111.336 86.0796 110.662 86.5889C109.998 87.0876 109.181 87.335 108.211 87.3312C106.942 87.3261 105.919 86.9113 105.144 86.0869C104.368 85.2624 103.983 84.2049 103.988 82.9142C103.994 81.5169 104.388 80.4252 105.17 79.6389C105.962 78.8421 106.934 78.446 108.086 78.4506C109.27 78.4553 110.213 78.8324 110.914 79.5819C111.626 80.3208 111.99 81.3302 112.006 82.6103ZM109.663 80.3609C109.248 79.9539 108.721 79.7491 108.081 79.7466C107.441 79.744 106.896 79.9392 106.447 80.332C106.008 80.725 105.718 81.2731 105.576 81.9766L110.456 81.9961C110.352 81.313 110.088 80.7679 109.663 80.3609ZM119.973 75.1861L121.461 75.192L121.413 87.1919L120.261 87.1873L120.042 85.9544C119.377 86.9011 118.442 87.3721 117.236 87.3672C116.01 87.3623 115.035 86.9424 114.313 86.1075C113.602 85.2727 113.249 84.2153 113.254 82.9353C113.26 81.5593 113.637 80.4728 114.387 79.6758C115.148 78.8788 116.109 78.4827 117.272 78.4873C118.349 78.4916 119.244 78.8845 119.955 79.666L119.973 75.1861ZM117.37 86.0718C118.095 86.0747 118.699 85.7944 119.181 85.231C119.663 84.6676 119.927 83.938 119.974 83.0421L119.975 82.6261C119.936 81.7833 119.677 81.0996 119.2 80.575C118.722 80.0505 118.12 79.7867 117.395 79.7838C116.637 79.7808 116.018 80.077 115.535 80.6724C115.053 81.2571 114.81 82.0135 114.806 82.9415C114.802 83.8588 115.039 84.6118 115.517 85.2003C115.995 85.7783 116.612 86.0687 117.37 86.0718ZM132.819 78.7575L134.307 78.7634L134.273 87.2433L133.121 87.2387L132.967 85.9581C132.429 86.9373 131.537 87.4244 130.289 87.4194C129.254 87.4153 128.45 87.1347 127.876 86.5778C127.302 86.0208 127.017 85.2943 127.021 84.3983L127.043 78.7344L128.515 78.7403L128.493 84.3402C128.491 84.8949 128.665 85.3276 129.016 85.6383C129.367 85.9491 129.841 86.1056 130.438 86.108C131.185 86.111 131.761 85.9053 132.168 85.4909C132.575 85.0765 132.785 84.5494 132.799 83.9094L132.819 78.7575ZM139.571 87.4565C138.483 87.4522 137.62 87.2141 136.982 86.7422C136.344 86.2596 136 85.5916 135.95 84.738L137.422 84.7439C137.463 85.2027 137.669 85.5609 138.041 85.8184C138.425 86.0653 138.941 86.19 139.592 86.1926C140.125 86.1947 140.552 86.0898 140.873 85.8777C141.194 85.655 141.355 85.3623 141.357 84.9996C141.358 84.637 141.215 84.3591 140.928 84.1659C140.652 83.9622 140.167 83.7895 139.474 83.6481C139.154 83.5828 138.915 83.5339 138.755 83.5012C138.595 83.4579 138.361 83.393 138.052 83.3064C137.753 83.2092 137.519 83.1016 137.349 82.9836C137.189 82.8656 137.014 82.7209 136.823 82.5495C136.642 82.3781 136.509 82.1696 136.425 81.9239C136.341 81.6782 136.299 81.4007 136.3 81.0914C136.303 80.3554 136.604 79.7539 137.204 79.287C137.803 78.8094 138.561 78.5724 139.478 78.5761C140.396 78.5798 141.147 78.8121 141.732 79.2731C142.317 79.7341 142.666 80.3702 142.78 81.1813L141.324 81.1755C141.157 80.2895 140.535 79.8443 139.457 79.84C138.956 79.838 138.545 79.9537 138.224 80.1871C137.914 80.4098 137.758 80.7026 137.756 81.0652C137.755 81.4812 137.903 81.7805 138.201 81.963C138.51 82.1349 139.016 82.2916 139.719 82.4331C140.092 82.5092 140.39 82.5798 140.614 82.6447C140.838 82.6989 141.104 82.7906 141.413 82.9199C141.733 83.0491 141.983 83.1941 142.163 83.3549C142.344 83.5156 142.498 83.7349 142.625 84.0127C142.762 84.2906 142.83 84.6055 142.829 84.9575C142.826 85.7042 142.52 86.311 141.91 86.7779C141.311 87.2341 140.531 87.4604 139.571 87.4565ZM152.084 82.7705L152.081 83.4105L145.585 83.3845C145.635 84.2381 145.904 84.9218 146.393 85.4358C146.881 85.9391 147.515 86.1923 148.294 86.1954C149.456 86.2 150.221 85.6858 150.588 84.6525L152.044 84.6584C151.848 85.5429 151.414 86.2399 150.74 86.7492C150.076 87.2479 149.259 87.4953 148.289 87.4914C147.019 87.4863 145.997 87.0715 145.222 86.2471C144.446 85.4227 144.061 84.3651 144.066 83.0745C144.072 81.6771 144.466 80.5854 145.247 79.7992C146.04 79.0023 147.012 78.6062 148.164 78.6108C149.348 78.6155 150.291 78.9926 150.992 79.7421C151.703 80.481 152.067 81.4904 152.084 82.7705ZM149.741 80.5211C149.326 80.1141 148.799 79.9094 148.159 79.9068C147.519 79.9042 146.974 80.0994 146.525 80.4923C146.086 80.8852 145.795 81.4334 145.654 82.1368L150.534 82.1563C150.43 81.4732 150.166 80.9282 149.741 80.5211Z" fill="#495057"/>
</g>
<g filter="url(#filter1_d_357_6656)">
<rect x="4.00879" y="6.4668" width="194" height="48" rx="16" transform="rotate(-1.90534 4.00879 6.4668)" fill="#DFE3FD" shape-rendering="crispEdges"/>
<path d="M56.127 22.042L57.6142 21.9926L57.9866 33.1864L56.3395 33.2412L49.9649 24.4883L50.2628 33.4433L48.7597 33.4933L48.3873 22.2995L50.0504 22.2442L56.426 31.0291L56.127 22.042ZM64.1362 33.1739C62.8462 33.2168 61.809 32.8351 61.0244 32.0287C60.2501 31.2114 59.8408 30.1364 59.7965 28.8038C59.7518 27.4605 60.111 26.3866 60.874 25.5822C61.6366 24.767 62.6256 24.3392 63.8409 24.2988C65.1309 24.2559 66.1626 24.6325 66.9362 25.4285C67.7204 26.2242 68.1336 27.2564 68.1758 28.525C68.2223 29.9216 67.8699 31.0379 67.1186 31.874C66.367 32.6995 65.3728 33.1328 64.1362 33.1739ZM64.0931 31.8786C64.9246 31.851 65.5702 31.5253 66.0297 30.9017C66.4999 30.2777 66.7195 29.502 66.6887 28.5745C66.6582 27.6577 66.383 26.9251 65.8631 26.3767C65.3539 25.828 64.6942 25.5671 63.884 25.5941C63.0738 25.621 62.4276 25.9254 61.9453 26.5071C61.4737 27.0884 61.2532 27.8375 61.2837 28.7543C61.3166 29.7458 61.5986 30.5208 62.1294 31.0795C62.6603 31.6381 63.3149 31.9045 64.0931 31.8786ZM80.9896 31.0604L81.4054 31.0466L81.4506 32.4058L80.779 32.4281C80.3099 32.4438 79.9229 32.3606 79.618 32.1786C79.3234 31.9856 79.149 31.7139 79.0946 31.3636C78.5253 32.215 77.5797 32.6626 76.2577 32.7066C75.3302 32.7375 74.5659 32.5388 73.9646 32.1105C73.363 31.6716 73.0502 31.0897 73.0261 30.3648C73.0044 29.7145 73.1896 29.1854 73.5816 28.7774C73.9842 28.3691 74.4713 28.0915 75.0427 27.9444C75.6244 27.7863 76.2023 27.671 76.7762 27.5986C77.3604 27.5151 77.8538 27.4293 78.2564 27.3412C78.6694 27.2421 78.8726 27.0966 78.8663 26.9047C78.8471 26.329 78.651 25.8873 78.2779 25.5795C77.9151 25.2607 77.4085 25.1122 76.7582 25.1338C76.1399 25.1544 75.6275 25.3102 75.2209 25.6012C74.825 25.8918 74.613 26.2564 74.5849 26.6949L73.1137 26.7439C73.1717 25.9201 73.5335 25.2464 74.1991 24.7227C74.8644 24.1882 75.7034 23.9042 76.7162 23.8705C77.8249 23.8336 78.6925 24.0876 79.319 24.6324C79.9561 25.1768 80.2915 25.9554 80.3252 26.9682L80.4438 30.5342C80.4559 30.8967 80.6378 31.0721 80.9896 31.0604ZM76.4087 31.4689C77.2615 31.4406 77.8999 31.2219 78.3239 30.8129C78.7475 30.3932 78.9535 29.8474 78.9418 29.1754L78.9115 28.2639C78.7992 28.4171 78.4937 28.5393 77.9952 28.6306C77.4962 28.7112 76.9914 28.7761 76.4808 28.8251C75.9698 28.8634 75.5101 29.0014 75.1018 29.2391C74.6935 29.4768 74.4966 29.8142 74.5111 30.2513C74.5239 30.6351 74.7047 30.9386 75.0537 31.1618C75.4026 31.385 75.8543 31.4874 76.4087 31.4689ZM88.713 20.1576L90.2002 20.1081L90.5992 32.1015L89.4478 32.1398L89.183 30.9159C88.5535 31.8867 87.6365 32.3921 86.4318 32.4322C85.2059 32.473 84.2166 32.0897 83.464 31.2822C82.722 30.4745 82.3298 29.4309 82.2872 28.1516C82.2415 26.7764 82.5784 25.6766 83.2981 24.8522C84.0284 24.0275 84.9746 23.5958 86.1366 23.5571C87.2133 23.5213 88.1218 23.8806 88.8619 24.6351L88.713 20.1576ZM86.5167 31.1327C87.2416 31.1085 87.8346 30.806 88.2955 30.225C88.7564 29.644 88.9933 28.9051 89.0062 28.0082L88.9923 27.5924C88.9217 26.7516 88.6378 26.078 88.1407 25.5716C87.6436 25.0652 87.0326 24.824 86.3076 24.8481C85.5507 24.8733 84.9423 25.1924 84.4824 25.8054C84.0222 26.4077 83.8075 27.1725 83.8384 28.1C83.8689 29.0169 84.1337 29.7605 84.633 30.3308C85.1319 30.8906 85.7598 31.1578 86.5167 31.1327ZM98.7955 23.3441L100.315 23.2936L97.0626 31.8864L95.4954 31.9386L91.6795 23.5808L93.2306 23.5292L96.2349 30.105L98.7955 23.3441ZM109.012 26.9424L109.033 27.5821L102.541 27.798C102.623 28.6491 102.917 29.3224 103.425 29.8178C103.932 30.3025 104.574 30.5319 105.353 30.5061C106.515 30.4674 107.26 29.925 107.588 28.8788L109.043 28.8304C108.881 29.7217 108.472 30.4343 107.817 30.9684C107.173 31.4914 106.366 31.7691 105.396 31.8013C104.127 31.8435 103.09 31.4671 102.284 30.6722C101.479 29.8772 101.055 28.8347 101.012 27.5447C100.965 26.1482 101.318 25.0425 102.07 24.2277C102.832 23.4019 103.789 22.9699 104.941 22.9316C106.124 22.8922 107.08 23.2339 107.808 23.9568C108.547 24.6686 108.948 25.6638 109.012 26.9424ZM106.587 24.7818C106.158 24.3906 105.623 24.2056 104.984 24.2268C104.344 24.2481 103.807 24.4634 103.372 24.8728C102.948 25.2818 102.679 25.8404 102.564 26.5486L107.441 26.3863C107.312 25.7076 107.027 25.1728 106.587 24.7818ZM114.846 22.7461L115.133 22.7366L115.181 24.1758L114.893 24.1853C113.987 24.2155 113.302 24.4731 112.838 24.9581C112.373 25.4325 112.156 26.1068 112.185 26.9809L112.331 31.3785L110.844 31.428L110.562 22.9527L111.729 22.9138L111.976 24.5545C112.471 23.3961 113.428 22.7933 114.846 22.7461ZM120.985 23.9667L118.73 24.0417L118.883 28.6312C118.895 29.0043 119.001 29.2889 119.2 29.4851C119.398 29.6813 119.668 29.7737 120.009 29.7623L121.033 29.7283L121.078 31.0875L120.054 31.1216C119.244 31.1485 118.608 30.9509 118.146 30.5287C117.683 30.1065 117.439 29.4903 117.412 28.6801L117.259 24.0906L115.74 24.1412L115.695 22.7819L117.214 22.7314L117.147 20.7325L118.619 20.6836L118.685 22.6824L120.94 22.6074L120.985 23.9667ZM123.202 21.2035C122.893 21.2137 122.633 21.121 122.424 20.9252C122.215 20.7187 122.105 20.4662 122.095 20.1677C122.085 19.8692 122.178 19.6153 122.374 19.406C122.569 19.1967 122.822 19.0869 123.131 19.0766C123.43 19.0667 123.683 19.1596 123.893 19.3555C124.102 19.5513 124.212 19.7984 124.222 20.0969C124.232 20.3954 124.139 20.6547 123.943 20.8746C123.747 21.0839 123.5 21.1935 123.202 21.2035ZM122.792 31.0305L122.51 22.5552L123.982 22.5063L124.264 30.9816L122.792 31.0305ZM129.618 30.9956C128.53 31.0317 127.659 30.8259 127.004 30.3781C126.348 29.9197 125.979 29.2649 125.898 28.4138L127.369 28.3649C127.427 28.8219 127.647 29.1721 128.028 29.4155C128.42 29.648 128.941 29.7534 129.592 29.7317C130.125 29.714 130.548 29.5932 130.86 29.3693C131.173 29.1348 131.323 28.8363 131.311 28.4739C131.299 28.1114 131.146 27.839 130.851 27.6567C130.567 27.4634 130.077 27.3089 129.379 27.1934C129.057 27.1401 128.816 27.1001 128.655 27.0734C128.493 27.0361 128.257 26.9799 127.945 26.9049C127.643 26.8189 127.405 26.7201 127.231 26.6085C127.067 26.4965 126.886 26.3585 126.688 26.1943C126.502 26.0297 126.361 25.8263 126.268 25.5839C126.174 25.3416 126.123 25.0658 126.112 24.7567C126.088 24.0211 126.366 23.4088 126.948 22.9199C127.529 22.4203 128.278 22.1552 129.195 22.1247C130.111 22.0942 130.871 22.2984 131.472 22.7373C132.074 23.1762 132.447 23.7989 132.591 24.6052L131.136 24.6536C130.936 23.7744 130.297 23.3527 129.221 23.3886C128.72 23.4052 128.313 23.5361 128.001 23.7813C127.699 24.0155 127.554 24.3138 127.566 24.6763C127.58 25.092 127.739 25.3856 128.044 25.5569C128.359 25.7172 128.87 25.8549 129.579 25.9701C129.954 26.0323 130.255 26.0917 130.481 26.1482C130.707 26.194 130.976 26.2758 131.29 26.3934C131.614 26.5107 131.869 26.6463 132.056 26.8002C132.242 26.9541 132.404 27.1675 132.541 27.4404C132.689 27.713 132.769 28.0251 132.78 28.377C132.805 29.1232 132.522 29.741 131.93 30.2303C131.348 30.7085 130.577 30.9636 129.618 30.9956ZM135.008 20.8107C134.699 20.821 134.439 20.7282 134.23 20.5324C134.02 20.3259 133.911 20.0734 133.901 19.7749C133.891 19.4764 133.984 19.2225 134.18 19.0133C134.375 18.804 134.628 18.6942 134.937 18.6839C135.236 18.674 135.489 18.7669 135.699 18.9627C135.908 19.1585 136.018 19.4057 136.028 19.7042C136.038 20.0027 135.945 20.2619 135.749 20.4819C135.553 20.6912 135.306 20.8008 135.008 20.8107ZM134.598 30.6378L134.316 22.1624L135.788 22.1135L136.069 30.5888L134.598 30.6378ZM142.072 21.6963C143.021 21.6648 143.792 21.9219 144.387 22.4678C144.981 23.003 145.293 23.713 145.322 24.5979L145.511 30.2747L144.04 30.3237L143.853 24.6948C143.834 24.1511 143.644 23.7305 143.282 23.433C142.92 23.1356 142.462 22.9961 141.908 23.0145C141.172 23.039 140.593 23.2717 140.17 23.7127C139.747 24.143 139.54 24.6782 139.551 25.3182L139.722 30.4673L138.235 30.5168L137.953 22.0415L139.184 22.0005L139.335 23.1481C139.902 22.2221 140.814 21.7382 142.072 21.6963ZM153.771 21.5153L154.938 21.4764L155.211 29.6799C155.248 30.778 154.909 31.675 154.196 32.3711C153.494 33.0775 152.546 33.4506 151.352 33.4903C150.179 33.5293 149.227 33.2995 148.495 32.8009C147.763 32.3023 147.383 31.6106 147.353 30.7257L148.841 30.6762C148.857 31.1773 149.089 31.5645 149.536 31.8378C149.993 32.1107 150.584 32.2351 151.309 32.211C152.066 32.1858 152.666 31.9418 153.11 31.4788C153.554 31.0264 153.764 30.4431 153.74 29.7288L153.712 28.8813C153.09 29.7771 152.199 30.2444 151.037 30.283C149.811 30.3238 148.821 29.9405 148.069 29.1331C147.327 28.3253 146.935 27.2817 146.892 26.0024C146.846 24.6272 147.183 23.5274 147.903 22.703C148.633 21.8783 149.579 21.4466 150.741 21.4079C151.967 21.3671 152.954 21.8146 153.7 22.7503L153.771 21.5153ZM149.238 28.1817C149.737 28.7414 150.365 29.0087 151.122 28.9835C151.878 28.9583 152.487 28.6339 152.946 28.0103C153.416 27.3863 153.636 26.5999 153.604 25.6511C153.574 24.7556 153.305 24.0335 152.796 23.4848C152.297 22.9357 151.669 22.6738 150.913 22.699C150.156 22.7241 149.547 23.0432 149.087 23.6562C148.627 24.2585 148.412 25.0234 148.443 25.9508C148.474 26.8677 148.739 27.6113 149.238 28.1817Z" fill="#495057"/>
</g>
<defs>
<filter id="filter0_d_357_6656" x="0.817383" y="58.2266" width="202.189" height="56.7754" filterUnits="userSpaceOnUse" color-interpolation-filters="sRGB">
<feFlood flood-opacity="0" result="BackgroundImageFix"/>
<feColorMatrix in="SourceAlpha" type="matrix" values="0 0 0 0 0 0 0 0 0 0 0 0 0 0 0 0 0 0 127 0" result="hardAlpha"/>
<feOffset dy="4"/>
<feGaussianBlur stdDeviation="2"/>
<feComposite in2="hardAlpha" operator="out"/>
<feColorMatrix type="matrix" values="0 0 0 0 0 0 0 0 0 0 0 0 0 0 0 0 0 0 0.1 0"/>
<feBlend mode="normal" in2="BackgroundImageFix" result="effect1_dropShadow_357_6656"/>
<feBlend mode="normal" in="SourceGraphic" in2="effect1_dropShadow_357_6656" result="shape"/>
</filter>
<filter id="filter1_d_357_6656" x="0.00878906" y="0.0175781" width="203.488" height="62.4219" filterUnits="userSpaceOnUse" color-interpolation-filters="sRGB">
<feFlood flood-opacity="0" result="BackgroundImageFix"/>
<feColorMatrix in="SourceAlpha" type="matrix" values="0 0 0 0 0 0 0 0 0 0 0 0 0 0 0 0 0 0 127 0" result="hardAlpha"/>
<feOffset dy="4"/>
<feGaussianBlur stdDeviation="2"/>
<feComposite in2="hardAlpha" operator="out"/>
<feColorMatrix type="matrix" values="0 0 0 0 0 0 0 0 0 0 0 0 0 0 0 0 0 0 0.1 0"/>
<feBlend mode="normal" in2="BackgroundImageFix" result="effect1_dropShadow_357_6656"/>
<feBlend mode="normal" in="SourceGraphic" in2="effect1_dropShadow_357_6656" result="shape"/>
</filter>
</defs>
</svg>
