<svg width="44" height="112" viewBox="0 0 44 112" fill="none" xmlns="http://www.w3.org/2000/svg">
<path d="M42.4451 49.8134C45.2951 69.7176 39.326 91.4146 21.6403 106.011L24.1615 106.437C25.7609 106.707 26.7799 108.039 26.4378 109.412C26.0956 110.786 24.5218 111.68 22.9224 111.41L14.5651 110C13.3041 109.787 12.3625 108.898 12.2372 107.801L11.1942 98.6751C11.0353 97.2847 12.2262 96.0286 13.8539 95.8693C15.4818 95.7101 16.9302 96.7082 17.0891 98.0987L17.5782 102.378C33.548 89.1758 39.2548 69.2888 36.5664 50.5126C33.6448 30.109 20.949 11.8711 2.0997 5.38566C0.591359 4.86649 -0.119226 3.39226 0.512562 2.09267C1.14442 0.793018 2.87941 0.160488 4.38799 0.679521C25.8698 8.07066 39.3677 28.3216 42.4451 49.8134Z" fill="#939FEE"/>
</svg>
