<svg width="25" height="24" viewBox="0 0 25 24" fill="none" xmlns="http://www.w3.org/2000/svg">
<path d="M4.75 21.4V2.6C4.75 2.44087 4.81321 2.28826 4.92574 2.17574C5.03826 2.06321 5.19087 2 5.35 2H17.002C17.1611 2.00014 17.3136 2.06345 17.426 2.176L20.574 5.324C20.63 5.3799 20.6743 5.44632 20.7045 5.51943C20.7347 5.59254 20.7502 5.6709 20.75 5.75V21.4C20.75 21.4788 20.7345 21.5568 20.7043 21.6296C20.6742 21.7024 20.63 21.7685 20.5743 21.8243C20.5185 21.88 20.4524 21.9242 20.3796 21.9543C20.3068 21.9845 20.2288 22 20.15 22H5.35C5.27121 22 5.19319 21.9845 5.12039 21.9543C5.04759 21.9242 4.98145 21.88 4.92574 21.8243C4.87002 21.7685 4.82583 21.7024 4.79567 21.6296C4.76552 21.5568 4.75 21.4788 4.75 21.4Z" stroke="#4C2B82" stroke-width="1.5" stroke-linecap="round" stroke-linejoin="round"/>
<path d="M16.75 2V5.4C16.75 5.55913 16.8132 5.71174 16.9257 5.82426C17.0383 5.93679 17.1909 6 17.35 6H20.75" stroke="#4C2B82" stroke-width="1.5" stroke-linecap="round" stroke-linejoin="round"/>
</svg>
